<svg xmlns="http://www.w3.org/2000/svg" viewBox="-49 141 512 512"><path fill="#FFF" d="M459.2 591.1L235.9 172.6c-5.6-10.5-16.5-17-28.4-17-11.9 0-22.8 6.5-28.4 17L-45.2 591c-5.3 10-5.1 22.1.7 31.7 5.8 9.7 16.3 15.6 27.6 15.6h447.6c11.3 0 21.8-5.9 27.6-15.6 5.9-9.6 6.2-21.7.9-31.6zM207.5 574c-17.8 0-32.2-14.4-32.2-32.2 0-17.8 14.4-32.2 32.2-32.2 17.7 0 32.2 14.4 32.2 32.2 0 17.8-14.4 32.2-32.2 32.2zm32.2-128.2c0 17.8-14.5 32.2-32.2 32.2-17.8 0-32.2-14.4-32.2-32.2V317c0-17.8 14.4-32.2 32.2-32.2 17.7 0 32.2 14.4 32.2 32.2v128.8z"/></svg>