<svg xmlns="http://www.w3.org/2000/svg" viewBox="0 0 785 792"><path d="M392.5 206.6c-96.1 0-174.3 78.2-174.3 174.3 0 33.5 9.5 66.1 27.6 94.1 13.2 20.5 30.4 37.9 50.6 51.3-7.1 7.3-11.5 17.3-11.5 28.3 0 10.8 4.3 20.7 11.2 28-6.9 7.3-11.2 17.1-11.2 28 0 22.4 18.2 40.6 40.6 40.6h5.3v5.5c0 25.5 26.4 45.4 60.2 45.4h3.1c33.8 0 60.2-19.9 60.2-45.4v-5.5h5.3c22.4 0 40.6-18.2 40.6-40.6 0-10.8-4.3-20.7-11.2-28 6.9-7.3 11.2-17.1 11.2-28 0-11-4.4-21-11.5-28.3 20.1-13.3 37.4-30.7 50.6-51.2 18-28.1 27.6-60.6 27.6-94.1-.1-96.2-78.3-174.4-174.4-174.4zm36.4 450c0 9.5-14.3 20-34.8 20H391c-20.5 0-34.8-10.6-34.8-20v-5.5H429l-.1 5.5zm30.7-30.8H325.4c-8.4 0-15.3-6.9-15.3-15.3s6.9-15.3 15.3-15.3h134.2c8.4 0 15.3 6.9 15.3 15.3s-6.9 15.3-15.3 15.3zm0-55.9H325.4c-8.4 0-15.3-6.9-15.3-15.3s6.9-15.3 15.3-15.3h134.2c8.4 0 15.3 6.9 15.3 15.3s-6.9 15.3-15.3 15.3zm-96.5-146.5h58.7c-13.3 31.8-20.7 71.6-23.7 90.6h-11.4c-2.9-19.1-10.3-58.9-23.6-90.6zm96.4 90.6h-35.6c3.9-23.3 13.2-69.6 29.2-96.9 2.3-3.9 2.3-8.8.1-12.7-2.3-3.9-6.5-6.4-11-6.4h-99.3c-4.5 0-8.7 2.4-11 6.4-2.3 3.9-2.2 8.8.1 12.7 16 27.2 25.3 73.6 29.2 96.9h-35.6c-49.9-25.2-82-77.1-82-133.1 0-82.1 66.8-149 149-149 82.1 0 149 66.8 149 149-.1 56-32.2 107.9-82.1 133.1zM392.5 169.6c-7 0-12.7-5.7-12.7-12.7v-54.2c0-7 5.7-12.7 12.7-12.7 7 0 12.7 5.7 12.7 12.7v54.2c0 7-5.7 12.7-12.7 12.7zM230.8 236.6c-3.2 0-6.5-1.2-9-3.7l-38.3-38.3c-5-5-5-13 0-17.9 5-4.9 13-4.9 17.9 0l38.3 38.3c5 5 5 13 0 17.9-2.4 2.5-5.6 3.7-8.9 3.7zM554.2 236.6c-3.2 0-6.5-1.2-9-3.7-5-5-5-13 0-17.9l38.3-38.3c5-4.9 13-4.9 17.9 0 5 5 5 13 0 17.9l-38.3 38.3c-2.4 2.4-5.6 3.7-8.9 3.7z"/><g><path d="M165.3 385.7h-54.2c-7 0-12.7-5.7-12.7-12.7 0-7 5.7-12.7 12.7-12.7h54.2c7 0 12.7 5.7 12.7 12.7 0 7-5.7 12.7-12.7 12.7zM673.9 385.7h-54.2c-7 0-12.7-5.7-12.7-12.7 0-7 5.7-12.7 12.7-12.7h54.2c7 0 12.7 5.7 12.7 12.7 0 7-5.7 12.7-12.7 12.7z"/></g></svg>