<svg xmlns="http://www.w3.org/2000/svg" viewBox="0 0 785 792"><path d="M697.7 653.5l-41.3-110.8V370.4c0-3.8-1.9-7.4-5-9.6L378.7 164.6s-.4-.3-.5-.3c-4.1-2.8-9.6-2.9-13.9.2L91.5 360.7c-3.1 2.2-5 5.8-5 9.6-.1 3.8 1.7 7.5 4.8 9.8l138.5 105.3v41.2c0 42.6 73 65.5 141.6 65.5 68.8 0 141.8-23 141.8-65.5v-41.2l119.1-90.6v147.8L591 653.4c-2.3 6.3.8 13.2 7.1 15.5 1.4.5 2.8.8 4.2.8 4.9 0 9.5-3 11.3-7.9l18.7-50.1v45.9c0 6.7 5.4 12.1 12.1 12.1s12.1-5.4 12.1-12.1v-45.9l18.7 50.1c1.8 4.9 6.4 7.9 11.3 7.9 1.4 0 2.8-.2 4.2-.8 6.2-2.2 9.4-9.1 7-15.4zM489 526.6c0 16.9-45.8 41.4-117.7 41.4-72.8 0-117.4-24.1-117.4-41.4v-20.2c12.7-30.1 62.7-52.6 117.7-52.6 54.9 0 104.7 22.5 117.4 52.5v20.3zm0-58.9c-26.7-23.1-70.2-38-117.4-38-47.3 0-91 14.9-117.7 38v-28.2c0-36.9 53.9-68.1 117.7-68.1 63.7 0 117.4 31.2 117.4 68.1v28.2zm24.2-12.6v-15.6c0-25.7-15.5-49.5-43.7-66.9-26.3-16.3-61.1-25.3-97.9-25.3-36.8 0-71.6 9-98.1 25.3-28.2 17.4-43.8 41.2-43.8 67v15.6l-110.8-84.3 252.5-181.7L624 370.8l-110.8 84.3z"/></svg>