<svg xmlns="http://www.w3.org/2000/svg" viewBox="0 0 785 792"><path d="M584 631.8h-34l-9.6-278.2c-.1-54.3-25.3-72-34.8-78.7-.4-.3-37.5-25.6-37.5-25.6l7.4-12.7c3.4-5.7 1.5-13.1-4.3-16.5l-7.1-4.2 18.4-31.3 10.7 6.3c1.9 1.1 4 1.7 6.1 1.7 1 0 2-.1 3-.4 3.1-.8 5.7-2.8 7.3-5.5l17.7-30.2c3.4-5.7 1.5-13.1-4.3-16.5l-82.2-48.3c-2.8-1.6-6-2.1-9.1-1.3-3.1.8-5.7 2.8-7.3 5.5l-17.7 30.2c-3.4 5.7-1.5 13.1 4.3 16.5l10.7 6.3-18.4 31.3-7.1-4.2c-2.8-1.6-6-2.1-9.1-1.3-3.1.8-5.7 2.8-7.3 5.5L263.7 377.7c-3.4 5.7-1.5 13.1 4.3 16.5l12.9 7.6-22.2 37.8c-1.6 2.7-2.1 6-1.3 9.1.8 3.1 2.8 5.7 5.5 7.3l28.4 16.7c1.9 1.1 4 1.7 6.1 1.7 4.1 0 8.1-2.1 10.4-5.9l22.2-37.8 12.9 7.6c1.9 1.1 4 1.7 6.1 1.7 1 0 2-.1 3-.4 3.1-.8 5.7-2.8 7.3-5.5l18-30.6 29.1 17.1c7.5 4.4 12.9 11.5 15.1 20 2.2 8.4 1 17.2-3.5 24.8l-51.7 87.9-20.3-11.9 3-5c3.4-5.7 1.5-13.1-4.3-16.5l-148.9-87.6c-2.8-1.6-6-2.1-9.1-1.3-3.1.8-5.7 2.8-7.3 5.5l-18.1 30.8c-3.4 5.7-1.5 13.1 4.3 16.5l22.6 13.3-10.9 18.5c-3.4 5.7-1.5 13.1 4.3 16.5l83 48.8c1.9 1.1 4 1.7 6.1 1.7 1 0 2-.1 3-.4 3.1-.8 5.7-2.8 7.3-5.5l10.9-18.5 12.2 7.2-39.3 66.7h-59.3c-22.8 0-41.4 18.6-41.4 41.4V690c0 6.6 5.4 12 12 12h437c6.6 0 12-5.4 12-12v-16.8c.2-22.8-18.3-41.4-41.1-41.4zM439.2 118.5l61.4 36.1-5.5 9.4-61.4-36.1 5.5-9.4zm3.4 42.6l19.3 11.4-18.4 31.3-.6-.4-18.7-11 18.4-31.3zM293.2 445.9l-7.6-4.5 16.1-27.5 7.6 4.5-16.1 27.5zm82.5-87.1l-30.9 52.6-54.2-31.9 103.9-176.7 54.2 31.9-22.7 38.7c-4.7-1.4-9.5-2.1-14.4-2.1-18.1 0-35 9.7-44.1 25.2-12.1 20.6-8.1 46.3 8.2 62.3zm12.6-50.1c4.8-8.2 13.8-13.4 23.4-13.4 4.8 0 9.5 1.3 13.7 3.7 12.9 7.6 17.2 24.2 9.6 37.1-4.8 8.2-13.8 13.4-23.4 13.4-4.8 0-9.5-1.3-13.7-3.7-12.9-7.7-17.2-24.3-9.6-37.1zM266.4 553.9l-62.3-36.6 4.8-8.2 62.3 36.6-4.8 8.2zM188.2 469l5.9-10.1 128.1 75.4-5.9 10.1L188.2 469zm145.7 92.9l30.7 18c1.9 1.1 4 1.7 6.1 1.7 1 0 2-.1 3-.4 3.1-.8 5.7-2.8 7.3-5.5l57.8-98.3c7.7-13.1 9.8-28.3 6-43-3.8-14.7-13.1-27-26.1-34.6l-29.1-17.1 6.8-11.5c4.9 1.5 10 2.3 15.2 2.3 18.1 0 35-9.7 44.1-25.2 12.3-20.8 8-46.9-8.8-62.9L456 270s35.4 24.2 35.9 24.5c7.4 5.2 24.6 17.3 24.6 59.3v.4l9.6 277.6H292.8l41.1-69.9zm267.4 116h-413v-4.7c0-9.5 7.8-17.3 17.3-17.3H584c9.5 0 17.3 7.8 17.3 17.3v4.7z"/></svg>