<?xml version="1.0" standalone="no"?>
<!DOCTYPE svg PUBLIC "-//W3C//DTD SVG 20010904//EN"
 "http://www.w3.org/TR/2001/REC-SVG-20010904/DTD/svg10.dtd">
<svg version="1.0" xmlns="http://www.w3.org/2000/svg"
 width="700.000000pt" height="700.000000pt" viewBox="0 0 700.000000 700.000000"
 preserveAspectRatio="xMidYMid meet">
<metadata>
Created by potrace 1.11, written by Peter Selinger 2001-2013
</metadata>
<g transform="translate(0.000000,700.000000) scale(0.100000,-0.100000)"
fill="#000000" stroke="none">
<path d="M3290 6904 c-91 -53 -180 -105 -198 -115 -18 -11 -146 -85 -285 -166
-139 -80 -310 -180 -382 -221 -71 -41 -256 -148 -410 -237 -509 -296 -1209
-702 -1244 -721 -18 -11 -41 -23 -50 -29 -9 -5 -59 -35 -111 -65 -52 -30 -104
-61 -115 -67 -11 -7 -28 -16 -37 -19 -12 -4 -18 -17 -19 -38 0 -17 -1 -804 -1
-1749 -1 -1469 1 -1720 13 -1731 11 -11 378 -226 569 -333 47 -27 755 -437
900 -522 118 -69 599 -348 658 -382 121 -70 206 -118 522 -302 l355 -206 55
31 c30 17 69 39 85 49 17 10 46 27 67 38 28 16 551 319 687 399 17 9 103 59
193 111 90 52 199 115 243 141 44 26 339 197 655 380 316 183 627 363 690 400
63 37 133 78 155 90 86 48 180 105 185 111 4 6 5 3460 1 3495 0 5 -20 20 -43
32 -24 12 -97 54 -163 93 -66 39 -138 81 -160 93 -22 12 -107 62 -190 110
-246 144 -398 232 -440 256 -22 12 -193 111 -380 220 -187 109 -357 207 -377
218 -20 12 -55 32 -77 46 -22 15 -43 26 -46 26 -3 0 -31 16 -61 35 -30 19 -57
35 -60 35 -3 0 -30 16 -60 35 -30 19 -56 35 -58 35 -2 0 -55 30 -117 66 -63
37 -170 99 -239 139 -69 40 -219 127 -334 194 -115 66 -209 121 -210 121 -1 0
-75 -44 -166 -96z m-1920 -2190 c0 -2 -9 0 -20 6 -11 6 -20 13 -20 16 0 2 9 0
20 -6 11 -6 20 -13 20 -16z m4220 22 c0 -2 -7 -7 -16 -10 -8 -3 -12 -2 -9 4 6
10 25 14 25 6z m-4185 -44 c-3 -3 -11 0 -18 7 -9 10 -8 11 6 5 10 -3 15 -9 12
-12z m4125 13 c0 -2 -10 -9 -22 -15 -22 -11 -22 -10 -4 4 21 17 26 19 26 11z
m-70 -45 c-14 -11 -29 -20 -35 -20 -5 0 4 9 20 20 38 25 48 25 15 0z m-3915
-45 c11 -9 -2 -4 -30 11 -27 15 -54 32 -60 37 -16 15 68 -29 90 -48z m3834 0
c-4 -3 -289 -169 -414 -240 -22 -13 -96 -56 -165 -96 -318 -185 -413 -239
-417 -239 -3 0 -17 -8 -31 -19 -22 -15 -129 -77 -327 -191 -16 -9 -127 -73
-245 -142 -118 -69 -240 -139 -270 -156 l-56 -31 -129 76 c-72 41 -143 83
-160 93 -56 31 -167 95 -198 114 -113 66 -932 540 -1147 664 -91 52 -169 99
-175 105 -7 7 -7 8 0 5 31 -17 1425 -815 1465 -839 8 -5 89 -51 180 -103 l165
-93 55 30 c30 17 123 69 205 117 83 48 159 92 170 98 11 6 91 52 178 102 87
49 162 90 168 90 5 0 9 5 9 10 0 6 4 10 9 10 5 0 42 19 83 43 40 24 100 59
133 77 93 52 134 75 530 304 323 187 403 231 384 211z m-3749 -51 c0 -2 -13 2
-30 11 -16 9 -30 18 -30 21 0 2 14 -2 30 -11 17 -9 30 -18 30 -21z"/>
</g>
</svg>
