<svg xmlns="http://www.w3.org/2000/svg" viewBox="0 0 612 267.9"><g fill="#6f7981"><path d="M17 66.1c2.6 0 4.6 0 6.2 1 2.1 1.5 3.1 3.6 3.1 6.7 0 5.1-3.1 7.7-8.2 7.7h-1v8.7H12V65.6h5v.5zm-.5 11.3h1c2.6 0 3.1-1 3.1-3.6s-1-3.6-3.6-3.6h-1v7.2h.5zm35.4-11.3V82c0 3.6.5 5.1 3.1 5.1s3.1-1.5 3.1-5.1V66.1h5.1V81c0 6.7-2.6 9.8-8.2 9.8s-8.2-3.1-8.2-9.8V66.1h5.1zm39.1 0h1.5c5.7 0 8.2 2.1 8.2 6.7 0 3.1-1.5 5.1-4.1 5.7 1.5.5 2.1 1.5 3.1 4.1l2.6 8.2h-5.7l-2.1-7.2c-.5-2.1-1-3.1-3.1-3.1h-1v10.3h-5.1V66.1H91zm-.5 10.3h1c2.6 0 3.6-1 3.6-3.1 0-2.6-1-3.1-3.6-3.1h-1v6.2zm37.6-10.3c8.2 0 12.3 3.6 12.3 12.3 0 7.7-4.1 12.3-12.3 12.3h-5.7V66.1h5.7zm-.6 20h.5c4.6 0 6.7-2.6 6.7-8.2 0-5.7-2.1-8.2-6.7-8.2h-.5v16.4zm39.6-20V82c0 3.6.5 5.1 3.1 5.1s3.1-1.5 3.1-5.1V66.1h5.1V81c0 6.7-2.6 9.8-8.2 9.8S162 87.7 162 81V66.1h5.1zm46.3 0v4.1h-7.7v5.7h7.2V80h-7.2v6.2h8.2v4.1h-13.4V65.6h12.9v.5zm53.5 0V82c0 3.6.5 5.1 3.1 5.1s3.1-1.5 3.1-5.1V66.1h5.1V81c0 6.7-2.6 9.8-8.2 9.8s-8.2-3.1-8.2-9.8V66.1h5.1zm39.6 0l7.2 18v-18h4.6v24.7h-6.2l-7.2-18v18h-4.6V66.1h6.2zm39.1 0v24.7h-5.1V66.1h5.1zm25.7 0l4.1 18.5 4.6-18.5h5.1l-6.7 24.7h-5.7L366 66.1h5.3zm46.8 0v4.1h-7.7v5.7h7.2V80h-7.2v6.2h8.2v4.1h-13.4V65.6h12.9v.5zm27.3 0h1.5c5.7 0 8.2 2.1 8.2 6.7 0 3.1-1.5 5.1-4.1 5.7 1.5.5 2.1 1.5 3.1 4.1l2.6 8.2H451l-2.1-7.2c-.5-2.1-1-3.1-3.1-3.1h-1v10.3h-5.1V66.1h5.7zm0 10.3h1c2.6 0 3.6-1 3.6-3.1 0-2.6-1-3.1-3.6-3.1h-1v6.2zm43.2-5.7c-1.5-1-3.1-1-4.6-1-2.1 0-3.1 1-3.1 2.6s1 2.6 3.6 3.6c3.6 2.1 5.7 3.1 5.7 7.2 0 4.6-3.1 7.7-8.2 7.7-2.1 0-3.6-.5-5.7-1l.5-4.6c2.1 1 3.6 1.5 5.1 1.5 2.1 0 3.6-1 3.6-3.1s-1.5-2.6-4.6-4.1c-3.1-1.5-4.6-3.1-4.6-6.7 0-4.6 3.1-7.2 8.2-7.2 1.5 0 3.1.5 5.1 1l-1 4.1zm27.7-4.6v24.7h-5.1V66.1h5.1zm36 0v4.6h-5.1v20.1h-5.1V70.7H537v-4.6h15.3zm23.7 0l3.6 10.3 3.6-10.3h5.7l-6.7 15.4v9.3H577V81l-6.7-14.9h5.7zm-471.1 36h-19l-3.1 17h19m396.5 7.7c1.5-7.2-.5-13.4-5.7-15.9-3.6-2.1-7.2-2.6-15.4-2.6h-17.5c0 2.1-.5 6.7-1 10.8L450 170c-.5 4.1-2.1 8.7-2.6 11.3h9.8c0-3.1.5-6.7 1-11.3l4.1-22.6h6.2c8.2 0 13.4-1 18.5-3.6 5.7-3.2 9.8-9.8 11.3-17zm-8.7 0c-1 4.6-3.1 8.2-6.7 10.8-3.6 2.1-7.2 3.1-13.9 3.1h-6.7l4.6-27.3h6.2c14.4.5 18 3.6 16.5 13.4zm33.4-.6c-6.7 0-15.4 2.6-24.7 7.2l2.1 6.2c6.7-4.1 14.9-6.7 21.1-6.7 4.6 0 6.2 2.1 5.1 8.7l-1 5.1h-1c-21.6 2.1-32.9 9.3-35 21.6-1.5 7.7 3.1 13.4 10.3 13.4 6.2 0 11.8-2.6 20.1-8.7l1-1-1.5 8.7h8.2c0-2.1.5-6.7 1-10.8l5.1-28.3c2.1-11.8-.5-15.4-10.8-15.4zm-.5 38.1c-7.7 6.7-15.4 10.8-20.6 10.8-4.1 0-5.7-2.6-5.1-7.7 1.5-8.7 11.3-14.4 27.8-15.4l-2.1 12.3zm42.2-30.9l1.5-7.7c-4.6 0-9.8 3.1-15.9 8.7l1.5-7.7h-8.2c0 2.1-.5 6.7-1 11.3l-5.7 31.4c-.5 4.1-2.1 8.7-2.6 11.3h8.7c0-2.6.5-6.7 1-11.3l4.6-25.7c6.2-6.7 11.3-10.3 14.9-10.3h1.2zm34.4-6.1l-1.5 1.5c-.5 0-1 .5-1.5 1.5-1.5 1-2.1 2.1-2.1 2.1l-19.5 17 6.2-36c.5-4.1 2.1-8.2 2.6-11.3h-8.7c0 2.1-.5 6.7-1 11.3l-9.8 56.6c-.5 4.1-2.1 8.7-2.6 11.3h8.7c0-2.6.5-6.7 1-11.3l3.1-16.5 10.3 17.5c2.6 4.6 4.1 7.2 5.1 9.8h10.8l-.5-.5c-1.5-2.1-4.1-5.7-6.2-8.7L580.6 151l19.5-17 2.6-2.1 3.1-2.6 2.6-2.1.5-.5h-9.8v.6zM224.2 139.6c-.5 1-1 2.1-1 3.1 0 4.1 3.6 7.7 7.7 7.7 3.6 0 7.7.5 11.3.5 1-11.3-3.1-19.5-11.3-23.1l11.8-27.3-3.6 6.7-14.9 32.4zm-34.9 10.8c4.6 0 9.3-.5 13.9-.5 3.6 0 5.7-2.6 5.7-6.2 0-1-.5-2.1-1-3.1l-6.2-11.8 1 2.1c-6.2 4.1-10.9 10.8-13.4 19.5zm33.9 12.9c-.5-.5-1-1-2.1-1-1.5 0-3.1 1.5-3.1 3.1-.5 4.6-2.6 23.1-3.6 31.4v3.6s1.5-10.3 2.6-19.5c6.7-1.5 12.9-5.1 17-10.3l1.5 1-12.3-8.3zm-9.8-22.1c.5.5 1.5 1.5 3.1 1.5 1 0 2.1-.5 2.6-1.5l8.2-14.4c-2.1-.5-4.1-1-6.7-1-5.1 0-10.3 1-14.4 3.6L195.9 115l1 2.6 16.5 23.6z"/><path d="M241.2 127.3c1 2.1 1.5 4.1 2.1 9.3l1 5.1 1.5 9.3c6.2.5 12.3.5 18.5 1l-1.5-15.9v-2.6c-.5-3.1-.5-5.1 0-7.2h-21.6v1zm47.3 27.2c9.3 1 18 2.1 27.3 3.6h5.1c6.2 0 13.4 0 17 .5.5-1.5.5-2.6 1-4.6 1.5-8.7 1-13.4-1-18.5-3.1-6.2-8.7-9.3-18.5-9.3-16.5-.5-27.8 10.3-30.9 28.3zm28.8-16.4c4.1 0 6.2 3.1 5.1 9.3H308c1.1-6.2 4.7-9.3 9.3-9.3zm40.6 27.7l2.6-15.4c4.6-4.6 9.8-6.7 15.9-6.7h2.1l3.1-18c-6.2.5-12.9 4.1-19 10.3l1.5-9.3h-19c0 2.6-.5 5.7-1 10.8l-4.1 24.2c5.6 1.6 11.8 3.1 17.9 4.1zm62.3-38.5c-1 3.6-1.5 4.6-3.6 10.3l-2.1 4.6-8.2 18.5-2.1-22.1-.5-4.1c-.5-4.1-.5-5.7-.5-7.7h-21.6c.5 1.5.5 2.1 1 3.6l1 5.1 1 3.6 7.7 35.5c6.2 1.5 12.3 3.6 18.5 5.7l17-32.9 3.1-6.2c5.1-10.3 5.7-10.8 7.7-13.9h-18.4zM284.4 154l6.2-12.3c4.1-8.2 6.2-11.8 8.2-14.9h-19.5c-.5 1.5-1.5 4.1-2.6 7.7l-1.5 3.6-6.2 14.4 15.4 1.5zm-100.8 10.8c-6.7 3.1-10.3 4.6-13.9 4.6-4.6 0-7.2-3.1-7.2-9.3 8.2-.5 17-.5 25.7-1-.5 7.2 1.5 12.9 5.7 17l10.3-15.4s.5-1 .5-1.5c0-1-1-2.1-2.1-2.1-67.9.5-134.2 8.7-199 23.1v.5h27.8c9.8 0 14.4-.5 20.6-2.6 4.6-1.5 9.3-5.1 12.9-9.3 3.1-.5 6.7-1 9.8-1.5l-.5 2.1c-1 5.1-1.5 8.2-2.6 10.8h20.6c0-2.6.5-5.7 1-10.8l1-4.6c8.7-1 17-2.1 25.7-2.6.5.5 1 1.5 1 2.6-.5 2.6-3.1 4.1-7.2 4.1-5.7 0-10.8-1-14.9-2.6l-5.7 12.9c5.7 1.5 12.3 2.6 18.5 2.6 15.9 0 27.3-7.2 29.3-18.5v-2.6h2.1c0 13.4 7.2 21.1 21.1 21.1 7.7 0 17-2.6 24.7-7.2l-4.6-10.8-.6 1zm29.8 2.6c0-2.6-2.1-4.1-4.1-4.1-1.5 0-2.6.5-3.1 1.5 0 0-10.3 10.8-13.9 14.4l-1 1.5s1.5-1.5 3.6-3.1c3.6 3.1 8.7 5.1 15.4 5.1 1 0 2.6 0 3.6-.5l-.5-14.8zm-145.5-3.1c4.1-6.2 7.2-13.4 8.7-21.1 1.5-8.7 1-17-2.1-23.7-1.5-3.1-4.1-6.2-7.2-8.2-4.1-2.6-7.7-3.6-17-3.6H15.9c0 2.6-.5 5.7-1 10.8L5.7 170c-1 4.6-1.5 7.7-2.6 10.3 21.6-6.2 43.2-11.4 64.8-16zm-33.4-43.7h3.6c6.7 0 10.3.5 12.9 2.1 5.1 2.1 7.2 10.3 5.1 21.1-1 6.2-3.1 11.8-5.7 15.4-3.6 5.7-7.7 7.2-18.5 7.2h-5.7l8.3-45.8z"/><path d="M227.8 157.1c-1 0-1.5.5-1.5 1.5 0 .5 0 1 .5 1.5l14.9 15.4 1.5 1-7.2-7.7c2.1-3.1 4.1-6.2 5.1-10.3h7.2l4.1 21.1h19.5l9.8-19.5c2.1 0 4.6.5 6.7.5 0 12.9 7.2 20.1 20.6 20.1 5.1 0 9.3-.5 14.9-3.1 5.1-2.1 7.2-3.1 11.8-6.2l-3.1-6.7c2.1.5 4.6.5 6.7 1l-.5 2.6c-1 5.1-1.5 8.2-2.6 10.8h20.6c0-2.6.5-5.7 1-10.8 11.8 2.1 24.2 4.1 36 6.7l1 4.1-1.5 3.6c-2.1 5.1-5.1 7.2-8.7 7.2-2.6 0-6.2-.5-8.2-1.5l-5.1 11.3c3.6 1.5 9.8 2.6 14.9 2.6s10.3-1.5 13.4-4.6c3.1-2.6 5.1-6.2 9.8-14.4l2.6-5.1c-59.2-11.8-120.9-19.6-184.2-21.1zm85.9 11.3c-4.1 0-6.7-1.5-7.2-5.1 6.7.5 12.9 1.5 19.5 2.1-4.6 2-8.7 3-12.3 3zm-205.2-10.8c10.3-1.5 20.1-2.6 30.3-3.6 0-.5-.5-.5-.5-1-2.6-3.1-4.6-3.6-12.3-6.7-3.6-1.5-4.6-2.1-4.6-4.1.5-2.1 2.6-3.6 5.7-3.6 4.1 0 8.7.5 12.3 2.1l5.1-11.8c-5.7-1.5-10.8-2.1-16.5-2.1-14.9 0-25.2 6.7-27.3 17-.9 5.1 2.2 10.2 7.8 13.8zm55-6.2c2.1-8.7 6.2-12.9 12.3-12.9 4.1 0 7.7 1 11.8 3.1l6.2-12.9c-4.6-2.1-10.8-3.1-17.5-3.1-17.5 0-28.8 9.8-32.4 27.3 6.3-.4 13-.9 19.6-1.5zm-68.4 8.3l3.6-21.1c1-5.1 1.5-8.2 2.6-10.8H80.7c0 2.6-.5 5.7-1 10.8l-4.1 24.7c6.2-1.6 12.9-2.6 19.5-3.6z"/></g></svg>