<svg xmlns="http://www.w3.org/2000/svg" viewBox="0 0 612 267.9"><path fill="#6f7981" d="M306 144.9L261.3 119V67.4L306 41.5l44.7 25.8V119L306 144.9zm-33.2-32.5l33.2 19.2 33.2-19.2V74L306 54.9 272.8 74v38.4z"/><g fill="#6f7981"><path d="M55.4 196.1h18.9l-3 24c-1.5 1.1-3.1 2-4.6 2.8-1.6.8-3.3 1.4-5 2-1.8.5-3.6.9-5.6 1.2-1.9.2-4 .4-6.2.4-3.6 0-6.9-.7-9.8-2-2.9-1.3-5.5-3.1-7.6-5.5s-3.7-5.1-4.9-8.3c-1.2-3.2-1.7-6.6-1.7-10.4 0-3.3.4-6.4 1.1-9.4.7-2.9 1.8-5.7 3.1-8.2 1.4-2.5 3-4.8 4.9-6.8 1.9-2 4-3.7 6.3-5.1 2.3-1.4 4.9-2.5 7.6-3.3 2.7-.8 5.6-1.2 8.5-1.2 2.4 0 4.6.2 6.6.7 2 .4 3.8 1 5.4 1.8 1.6.7 3 1.6 4.3 2.6 1.3 1 2.4 2 3.3 3.1l-3.8 4.8c-.6.9-1.4 1.4-2.2 1.6-.9.2-1.8 0-2.7-.6-.9-.6-1.7-1.1-2.5-1.6s-1.6-.9-2.5-1.3c-.9-.3-1.9-.6-3-.8-1.1-.2-2.3-.3-3.7-.3-2.7 0-5.3.6-7.6 1.7s-4.3 2.7-5.9 4.8c-1.7 2.1-2.9 4.5-3.9 7.5-.9 2.9-1.4 6.1-1.4 9.7 0 2.7.3 5.1 1 7.3.7 2.1 1.6 4 2.9 5.4 1.2 1.5 2.7 2.6 4.4 3.4 1.7.8 3.7 1.2 5.8 1.2 1.9 0 3.7-.2 5.2-.5 1.5-.4 2.9-.9 4.3-1.5l1.3-10.5h-5.8c-.7 0-1.3-.2-1.7-.6-.4-.4-.5-.9-.4-1.5l.6-6.6zM93.2 226.3c-2.3 0-4.5-.4-6.5-1.2-2-.8-3.7-1.9-5.2-3.4s-2.6-3.3-3.4-5.5c-.8-2.2-1.2-4.7-1.2-7.5 0-3.6.6-7 1.8-10.1 1.2-3.1 2.8-5.8 4.8-8.1s4.4-4 7.1-5.3c2.7-1.3 5.5-1.9 8.5-1.9 2.3 0 4.5.4 6.4 1.2 2 .8 3.7 1.9 5.2 3.4s2.6 3.3 3.4 5.5c.8 2.2 1.3 4.7 1.3 7.5 0 3.6-.6 7-1.8 10.1-1.2 3.1-2.8 5.8-4.8 8-2 2.3-4.4 4-7.1 5.3-2.7 1.4-5.6 2-8.5 2zm.9-8.3c1.6 0 3-.5 4.2-1.4 1.2-.9 2.3-2.1 3.2-3.7.9-1.6 1.5-3.3 2-5.4.5-2 .7-4.2.7-6.5 0-3.2-.5-5.6-1.5-7-1-1.4-2.5-2.2-4.6-2.2-1.5 0-2.9.5-4.2 1.4-1.3.9-2.3 2.1-3.2 3.7-.9 1.5-1.5 3.3-2 5.4s-.7 4.2-.7 6.5c0 3.2.5 5.5 1.5 7 1 1.4 2.5 2.2 4.6 2.2zM134 226.3c-2.3 0-4.5-.4-6.5-1.2-2-.8-3.7-1.9-5.2-3.4s-2.6-3.3-3.4-5.5c-.8-2.2-1.2-4.7-1.2-7.5 0-3.6.6-7 1.8-10.1 1.2-3.1 2.8-5.8 4.8-8.1s4.4-4 7.1-5.3c2.7-1.3 5.5-1.9 8.5-1.9 2.3 0 4.5.4 6.4 1.2 2 .8 3.7 1.9 5.2 3.4s2.6 3.3 3.4 5.5c.8 2.2 1.3 4.7 1.3 7.5 0 3.6-.6 7-1.8 10.1-1.2 3.1-2.8 5.8-4.8 8-2 2.3-4.4 4-7.1 5.3-2.7 1.4-5.5 2-8.5 2zm.9-8.3c1.6 0 3-.5 4.2-1.4 1.2-.9 2.3-2.1 3.2-3.7.9-1.6 1.5-3.3 2-5.4s.7-4.2.7-6.5c0-3.2-.5-5.6-1.5-7-1-1.4-2.5-2.2-4.6-2.2-1.5 0-2.9.5-4.2 1.4-1.3.9-2.3 2.1-3.2 3.7-.9 1.5-1.5 3.3-2 5.4s-.7 4.2-.7 6.5c0 3.2.5 5.5 1.5 7 1 1.4 2.5 2.2 4.6 2.2zM201 165.5l-7.5 60.3h-5.9c-.7 0-1.3-.1-1.8-.3-.5-.2-.8-.4-1.1-.8-.3-.3-.5-.7-.6-1.1-.1-.4-.2-.9-.2-1.4l.2-4.7c-2 2.8-4.2 5-6.6 6.5-2.4 1.6-5 2.4-7.7 2.4-1.7 0-3.3-.3-4.7-.9-1.4-.6-2.6-1.6-3.7-2.8-1-1.3-1.8-2.9-2.3-4.9-.6-2-.8-4.3-.8-7 0-2.4.2-4.7.7-7 .5-2.3 1.2-4.4 2.1-6.4.9-2 2-3.9 3.2-5.6 1.3-1.7 2.6-3.2 4.1-4.4 1.5-1.2 3.1-2.2 4.8-2.9 1.7-.7 3.5-1 5.3-1 1.8 0 3.4.3 4.9.9 1.5.6 2.7 1.5 3.8 2.5l2.7-21.4H201zM186.5 194c-.9-.8-1.8-1.4-2.9-1.7-1.1-.3-2.2-.5-3.2-.5-1.6 0-3.1.5-4.4 1.6s-2.5 2.4-3.5 4.1c-1 1.7-1.7 3.6-2.3 5.7-.5 2.1-.8 4.3-.8 6.5 0 2.8.4 4.8 1.3 6.1.9 1.3 2.1 2 3.6 2 1 0 2-.4 3-1.1 1-.7 2.1-1.7 3-2.9 1-1.2 1.9-2.7 2.7-4.4.8-1.7 1.6-3.5 2.2-5.4l1.3-10zM258.9 167.1v58.6h-6.3c-.9 0-1.7-.2-2.4-.5-.6-.3-1.3-.8-1.9-1.6l-29.2-37.2c.1.9.1 1.9.2 2.8 0 .9.1 1.8.1 2.5v33.9h-10.7V167h6.4c.5 0 .9 0 1.3.1.4 0 .7.1 1 .3.3.1.6.3.8.6.3.2.6.6.9 1l29.4 37.3c-.1-1-.2-2-.2-3-.1-1-.1-1.9-.1-2.7v-33.5h10.7zM266.1 189.8c2.4-2.2 5.2-3.9 8.1-4.9 3-1.1 6.2-1.6 9.6-1.6 2.5 0 4.7.4 6.6 1.2 2 .8 3.6 1.9 5 3.4 1.4 1.4 2.4 3.2 3.1 5.2.7 2 1.1 4.2 1.1 6.5v26.2h-5.1c-1 0-1.9-.1-2.4-.4-.6-.3-1-.9-1.4-1.9l-.9-2.7c-1.1.9-2.1 1.7-3.1 2.4s-2 1.3-3 1.8c-1.1.5-2.2.8-3.4 1.1-1.2.2-2.5.4-4 .4-1.8 0-3.5-.2-5-.7-1.5-.5-2.8-1.2-3.9-2.2-1.1-1-1.9-2.1-2.5-3.6-.6-1.4-.9-3.1-.9-4.9 0-1.5.4-3.1 1.2-4.6.8-1.5 2.1-2.9 4-4.2 1.9-1.3 4.4-2.3 7.6-3.1 3.2-.8 7.1-1.3 11.9-1.4v-2.1c0-2.6-.6-4.5-1.7-5.8-1.1-1.2-2.7-1.8-4.8-1.8-1.5 0-2.8.2-3.8.5-1 .4-1.9.8-2.7 1.2-.8.4-1.5.8-2.2 1.2s-1.5.5-2.3.5c-.8 0-1.4-.2-2-.6-.5-.4-1-.9-1.3-1.4l-1.8-3.7zm22.7 18.5c-2.7.1-5 .4-6.8.7-1.8.3-3.2.8-4.3 1.3-1.1.5-1.8 1.2-2.3 1.8-.4.7-.7 1.4-.7 2.2 0 1.6.5 2.8 1.4 3.4.9.7 2.2 1 3.8 1 1.9 0 3.5-.3 4.8-1 1.4-.7 2.7-1.7 4.1-3.1v-6.3zM315.5 188.9c.8-.8 1.7-1.5 2.6-2.2s1.9-1.3 2.9-1.7c1-.5 2.1-.9 3.3-1.1 1.2-.3 2.4-.4 3.8-.4 2.3 0 4.3.4 6 1.2 1.8.8 3.2 1.9 4.4 3.3 1.2 1.4 2.1 3.1 2.7 5s.9 4.1.9 6.4v26.5H331v-26.5c0-2.3-.5-4.1-1.6-5.4-1.1-1.3-2.7-1.9-4.8-1.9-1.6 0-3 .3-4.4 1-1.4.7-2.7 1.6-3.9 2.8v29.9h-11.2v-41.7h6.9c1.4 0 2.3.6 2.8 1.9l.7 2.9zM366.5 183.4c3.1 0 6 .5 8.5 1.5 2.6 1 4.8 2.4 6.6 4.3 1.8 1.8 3.2 4.1 4.2 6.7 1 2.6 1.5 5.6 1.5 8.9 0 3.3-.5 6.3-1.5 8.9-1 2.7-2.4 4.9-4.2 6.8-1.8 1.9-4 3.3-6.6 4.3-2.6 1-5.4 1.5-8.5 1.5-3.2 0-6-.5-8.6-1.5-2.6-1-4.8-2.4-6.6-4.3-1.8-1.9-3.3-4.1-4.3-6.8s-1.5-5.6-1.5-8.9c0-3.3.5-6.3 1.5-8.9 1-2.6 2.4-4.9 4.3-6.7 1.8-1.8 4-3.3 6.6-4.3 2.6-1 5.5-1.5 8.6-1.5zm0 34.6c3.2 0 5.5-1.1 7.1-3.3 1.5-2.2 2.3-5.5 2.3-9.8 0-4.3-.8-7.6-2.3-9.8-1.5-2.2-3.9-3.3-7.1-3.3-3.3 0-5.7 1.1-7.2 3.3-1.5 2.2-2.3 5.4-2.3 9.8 0 4.3.8 7.6 2.3 9.8 1.6 2.2 4 3.3 7.2 3.3zM424 196.1h18.9l-3 24c-1.5 1.1-3.1 2-4.6 2.8-1.6.8-3.3 1.4-5 2-1.8.5-3.6.9-5.6 1.2-1.9.2-4 .4-6.2.4-3.6 0-6.9-.7-9.8-2-3-1.3-5.5-3.1-7.6-5.5-2.1-2.3-3.7-5.1-4.9-8.3-1.2-3.2-1.7-6.6-1.7-10.4 0-3.3.4-6.4 1.1-9.4.7-2.9 1.8-5.7 3.1-8.2 1.4-2.5 3-4.8 4.9-6.8 1.9-2 4-3.7 6.3-5.1 2.3-1.4 4.9-2.5 7.6-3.3 2.7-.8 5.6-1.2 8.5-1.2 2.4 0 4.6.2 6.6.7 2 .4 3.8 1 5.4 1.8 1.6.7 3 1.6 4.3 2.6 1.3 1 2.4 2 3.3 3.1l-3.8 4.8c-.6.9-1.4 1.4-2.2 1.6-.9.2-1.8 0-2.7-.6-.9-.6-1.7-1.1-2.5-1.6s-1.6-.9-2.5-1.3c-.9-.3-1.9-.6-3-.8-1.1-.2-2.3-.3-3.7-.3-2.7 0-5.3.6-7.6 1.7s-4.3 2.7-5.9 4.8c-1.7 2.1-2.9 4.5-3.9 7.5-.9 2.9-1.4 6.1-1.4 9.7 0 2.7.3 5.1 1 7.3.7 2.1 1.6 4 2.9 5.4 1.2 1.5 2.7 2.6 4.4 3.4 1.7.8 3.7 1.2 5.8 1.2 1.9 0 3.7-.2 5.2-.5 1.5-.4 2.9-.9 4.3-1.5l1.3-10.5h-5.8c-.7 0-1.3-.2-1.7-.6-.4-.4-.5-.9-.4-1.5l.6-6.6zM485.5 184.1l-5.1 41.7h-5.7c-2.6 0-4-1.3-4-3.8l.1-3.8c-2 2.7-4.3 4.8-6.7 6.1-2.4 1.3-4.9 2-7.5 2-1.8 0-3.3-.3-4.7-1-1.4-.7-2.6-1.7-3.5-3.1-.9-1.3-1.6-3-1.9-4.9-.4-2-.4-4.2-.1-6.7l3.1-26.5h11.2l-3.2 26.5c-.3 2.5-.2 4.3.4 5.3.6 1 1.6 1.6 3 1.6 1 0 2-.3 3-.8 1-.6 2-1.3 3-2.4 1-1 1.8-2.3 2.7-3.7.8-1.4 1.5-3.1 2-4.8l2.6-21.6h11.3zM505.5 184.1l-5 41.7h-11l5-41.7h11zm2.4-11.9c0 .9-.2 1.8-.6 2.6-.4.8-.9 1.5-1.5 2.1-.6.6-1.4 1.1-2.2 1.5-.8.3-1.7.5-2.5.5-.9 0-1.7-.2-2.5-.5s-1.5-.8-2.1-1.5-1.1-1.3-1.5-2.1c-.4-.8-.5-1.7-.5-2.6 0-.9.2-1.8.6-2.6.4-.8.9-1.5 1.5-2.2s1.3-1.1 2.1-1.5 1.6-.5 2.5-.5c.9 0 1.7.2 2.6.5.8.4 1.5.8 2.2 1.5.6.6 1.1 1.3 1.5 2.2.2.8.4 1.7.4 2.6zM550.6 165.5l-7.5 60.3h-5.9c-.7 0-1.3-.1-1.8-.3-.5-.2-.8-.4-1.1-.8-.3-.3-.5-.7-.6-1.1-.1-.4-.2-.9-.2-1.4l.2-4.7c-2 2.8-4.2 5-6.6 6.5-2.4 1.6-5 2.4-7.7 2.4-1.7 0-3.3-.3-4.7-.9-1.4-.6-2.6-1.6-3.7-2.8-1-1.3-1.8-2.9-2.3-4.9-.6-2-.8-4.3-.8-7 0-2.4.2-4.7.7-7 .5-2.3 1.2-4.4 2.1-6.4.9-2 2-3.9 3.2-5.6 1.3-1.7 2.6-3.2 4.1-4.4 1.5-1.2 3.1-2.2 4.8-2.9 1.7-.7 3.5-1 5.3-1 1.8 0 3.4.3 4.9.9 1.5.6 2.7 1.5 3.8 2.5l2.7-21.4h11.1zM536.1 194c-.9-.8-1.8-1.4-2.9-1.7-1.1-.3-2.2-.5-3.2-.5-1.6 0-3.1.5-4.4 1.6s-2.5 2.4-3.5 4.1c-1 1.7-1.7 3.6-2.3 5.7-.5 2.1-.8 4.3-.8 6.5 0 2.8.4 4.8 1.3 6.1.9 1.3 2.1 2 3.6 2 1 0 2-.4 3-1.1 1-.7 2.1-1.7 3-2.9 1-1.2 1.9-2.7 2.7-4.4.8-1.7 1.6-3.5 2.2-5.4l1.3-10zM561.2 208.6c0 6.2 2.6 9.3 7.8 9.3 1.7 0 3.1-.2 4.2-.7 1.1-.4 2-.9 2.8-1.5.8-.5 1.5-1 2.2-1.5.7-.4 1.4-.7 2.3-.7.4 0 .7.1 1.1.3.3.2.6.4.9.7l2.8 3.4c-1.5 1.5-2.9 2.7-4.2 3.7-1.4 1-2.8 1.9-4.3 2.6-1.5.7-3 1.2-4.6 1.5-1.6.3-3.4.5-5.3.5-2.5 0-4.7-.4-6.7-1.3s-3.8-2-5.2-3.5c-1.4-1.5-2.6-3.4-3.4-5.5-.8-2.1-1.2-4.5-1.2-7.2 0-2.2.2-4.4.7-6.5.5-2.1 1.2-4.1 2.1-6 .9-1.9 2-3.6 3.3-5.2 1.3-1.6 2.8-2.9 4.5-4.1 1.7-1.1 3.5-2 5.5-2.7 2-.6 4.1-1 6.3-1s4.1.3 5.8.9c1.7.6 3.1 1.5 4.2 2.5s2 2.1 2.6 3.4c.6 1.2.9 2.5.9 3.7 0 1.9-.4 3.6-1.1 5.1-.8 1.6-2.1 3-4 4.2s-4.4 2.3-7.7 3.2c-3.2.9-7.3 1.6-12.2 2v.4zm10.9-17.5c-1.2 0-2.3.2-3.4.7-1 .5-2 1.2-2.8 2.1-.8.9-1.6 2-2.2 3.3-.6 1.3-1.2 2.7-1.6 4.2 3-.4 5.4-.9 7.3-1.4 1.8-.5 3.3-1 4.3-1.6 1-.6 1.7-1.2 2-1.9.3-.7.5-1.4.5-2.2 0-.4-.1-.8-.2-1.2-.2-.4-.4-.7-.7-1-.3-.3-.7-.6-1.3-.8-.5-.1-1.2-.2-1.9-.2z"/></g></svg>