<svg xmlns="http://www.w3.org/2000/svg" viewBox="-246 372 119 49"><path fill="#6f7981" d="M-239.2 402.7v-6c0-.8-.2-1.3-.5-1.7s-.9-.6-1.6-.6c-1 0-1.7.3-2.1.8-.5.5-.7 1.4-.7 2.6v4.9h-1.4v-9.3h1.2l.2 1.3h.1c.3-.5.7-.8 1.2-1.1s1.1-.4 1.7-.4c1.1 0 2 .3 2.5.8.6.5.9 1.4.9 2.6v6.1h-1.5zM-229.1 402.7l-.3-1.3h-.1c-.5.6-.9 1-1.4 1.2s-1 .3-1.7.3c-.9 0-1.7-.2-2.2-.7-.5-.5-.8-1.2-.8-2 0-1.9 1.5-2.9 4.5-3l1.6-.1v-.6c0-.7-.2-1.3-.5-1.6s-.8-.5-1.5-.5c-.8 0-1.7.2-2.6.7l-.4-1.1c.5-.3 1-.4 1.5-.6.5-.1 1.1-.2 1.6-.2 1.1 0 1.9.2 2.5.7.5.5.8 1.3.8 2.4v6.4h-1zm-3.2-1c.9 0 1.6-.2 2.1-.7.5-.5.8-1.2.8-2v-.8l-1.4.1c-1.1 0-1.9.2-2.4.5s-.7.8-.7 1.4c0 .5.2.9.5 1.2.1.2.5.3 1.1.3zM-218.7 402.7v-6c0-.8-.2-1.3-.5-1.7s-.9-.6-1.6-.6c-1 0-1.7.3-2.1.8-.5.5-.7 1.4-.7 2.6v4.9h-1.4v-9.3h1.2l.2 1.3h.1c.3-.5.7-.8 1.2-1.1s1.1-.4 1.7-.4c1.1 0 2 .3 2.5.8.6.5.9 1.4.9 2.6v6.1h-1.5zM-206.4 398.1c0 1.5-.4 2.7-1.2 3.6-.8.9-1.8 1.3-3.2 1.3-.8 0-1.6-.2-2.2-.6-.6-.4-1.1-1-1.5-1.7-.4-.7-.5-1.6-.5-2.6 0-1.5.4-2.7 1.1-3.6s1.8-1.3 3.2-1.3c1.3 0 2.3.4 3.1 1.3.9.9 1.2 2.1 1.2 3.6zm-7.1 0c0 1.2.2 2.1.7 2.7.5.6 1.2.9 2.1.9.9 0 1.6-.3 2.1-.9.5-.6.7-1.5.7-2.7 0-1.2-.2-2.1-.7-2.7-.5-.6-1.2-.9-2.1-.9-.9 0-1.6.3-2.1.9s-.7 1.5-.7 2.7zM-203.7 390.3h3.5c1.7 0 2.9.2 3.6.7.7.5 1.1 1.3 1.1 2.3 0 .7-.2 1.3-.6 1.8-.4.5-1 .8-1.8.9v.1c1.9.3 2.8 1.3 2.8 3 0 1.1-.4 2-1.1 2.6-.8.6-1.8.9-3.2.9h-4.3v-12.3zm1.5 5.3h2.4c1 0 1.8-.2 2.2-.5.4-.3.7-.9.7-1.6 0-.7-.2-1.2-.8-1.5-.5-.3-1.3-.5-2.4-.5h-2.1v4.1zm0 1.2v4.7h2.6c1 0 1.8-.2 2.3-.6s.8-1 .8-1.8-.3-1.3-.8-1.7c-.5-.4-1.3-.5-2.4-.5h-2.5zM-192.3 402.7v-12.5h1.4v12.5h-1.4zM-176.7 396.5c0 2-.5 3.6-1.5 4.7s-2.4 1.7-4.2 1.7c-1.8 0-3.3-.6-4.2-1.7-1-1.1-1.5-2.7-1.5-4.8 0-2 .5-3.6 1.5-4.7s2.4-1.7 4.3-1.7c1.8 0 3.2.6 4.2 1.7.9 1.2 1.4 2.8 1.4 4.8zm-9.9 0c0 1.7.4 3 1.1 3.8.7.9 1.8 1.3 3.1 1.3 1.4 0 2.4-.4 3.1-1.3.7-.9 1.1-2.2 1.1-3.8 0-1.7-.4-2.9-1.1-3.8-.7-.9-1.7-1.3-3.1-1.3-1.4 0-2.4.4-3.2 1.3-.6.9-1 2.1-1 3.8zM-164.1 402.7h-1.7l-6.8-10.5h-.1c.1 1.2.1 2.4.1 3.4v7.1h-1.3v-12.5h1.6l6.8 10.4h.1c0-.2 0-.6-.1-1.5 0-.8-.1-1.4 0-1.8v-7.2h1.4v12.6zM-149.9 396.5c0 2-.5 3.6-1.5 4.7s-2.4 1.7-4.2 1.7c-1.8 0-3.3-.6-4.2-1.7-1-1.1-1.5-2.7-1.5-4.8 0-2 .5-3.6 1.5-4.7s2.4-1.7 4.3-1.7c1.8 0 3.2.6 4.2 1.7.9 1.2 1.4 2.8 1.4 4.8zm-9.9 0c0 1.7.4 3 1.1 3.8.7.9 1.8 1.3 3.1 1.3 1.4 0 2.4-.4 3.1-1.3.7-.9 1.1-2.2 1.1-3.8 0-1.7-.3-2.9-1.1-3.8-.7-.9-1.7-1.3-3.1-1.3-1.4 0-2.4.4-3.2 1.3-.7.9-1 2.1-1 3.8zM-137.2 396.4c0 2.1-.6 3.6-1.7 4.7s-2.7 1.6-4.8 1.6h-3.5v-12.5h3.8c1.9 0 3.4.5 4.5 1.6 1.2 1.2 1.7 2.7 1.7 4.6zm-1.5 0c0-1.6-.4-2.9-1.2-3.7-.8-.8-2-1.2-3.6-1.2h-2.1v10h1.8c1.7 0 3-.4 3.9-1.3s1.2-2.1 1.2-3.8zM-127.4 402.7h-6.9v-12.5h6.9v1.3h-5.5v4h5.2v1.3h-5.2v4.6h5.5v1.3z"/></svg>