<svg xmlns="http://www.w3.org/2000/svg" viewBox="0 0 612 267.9"><g fill="#6f7981"><path d="M176.9 77.5c-32.4 0-59.1 26.7-59.5 59.5v52.9l1.6-.1c.2 0 18.1-1.4 18.4-17.8v-34.9c.3-21.8 18.1-39.5 39.5-39.5s39.2 17.7 39.5 39.5v35c.2 16.4 18.2 17.8 18.4 17.8l1.6.1v-52.9c-.4-33-27-59.6-59.5-59.6zM435.1 77.5c-32.4 0-59.1 26.7-59.5 59.5v52.9l1.6-.1c.2 0 18.1-1.4 18.4-17.8v-35c.3-21.8 18.1-39.5 39.5-39.5s39.2 17.7 39.5 39.5v35c.2 16.4 18.2 17.8 18.4 17.8l1.6.1V137c-.4-32.9-27.1-59.5-59.5-59.5zM314.6 96.6h22.2c15.5-.2 16.8-17.2 16.8-17.4l.1-1.5h-39.1c-31 .3-56.3 25.6-56.3 56.3 0 30.7 25.3 56 56.3 56.3h39.1l-.1-1.5c0-.2-1.3-17.2-16.8-17.4h-22.1c-20.6-.3-37.4-17.1-37.4-37.4-.2-20.3 16.6-37.1 37.3-37.4z"/></g></svg>