<svg xmlns="http://www.w3.org/2000/svg" viewBox="-246 372 119 49"><path fill="#6f7981" d="M-212.5 407.9l.1-22.8-5.8 7.5-18-7.5-.1 22.9 6.3-6.8 17.5 6.7"/><path fill="#FFF" d="M-212.6 408.1l-23.8-22.9.4-.3 23.7 22.9"/><g><path fill="#6f7981" d="M-201.8 388.1l12.7 13.3v-12.6h1.8v17.1l-12.7-13.3v12.6h-1.8v-17.1zM-183.8 388.8h8.5v1.7h-6.6v4.8h6.5v1.7h-6.5v6.4h6.6v1.7h-8.5v-16.3zM-172.3 388.8h8.5v1.7h-6.6v4.8h6.5v1.7h-6.5v6.4h6.6v1.7h-8.5v-16.3zM-160.7 388.8h3.1c2.4 0 4.4.3 6.4 2 1.9 1.6 2.7 3.8 2.7 6.2 0 2.4-.9 4.5-2.7 6.1-1.9 1.7-3.9 2.1-6.5 2.1h-3v-16.4zm3.1 14.6c2 0 3.7-.3 5.2-1.7 1.3-1.3 2-3 2-4.8 0-1.9-.7-3.7-2.1-4.9-1.5-1.3-3.1-1.6-5.1-1.6h-1.3v12.9l1.3.1zM-138.6 392c-.7-1.1-1.4-1.8-2.8-1.8-1.5 0-2.7 1-2.7 2.5 0 1.4 1.4 2.1 2.6 2.6l1.1.5c2.1.9 3.9 2 3.9 4.6 0 2.9-2.3 5-5.1 5-2.6 0-4.6-1.7-5.1-4.2l1.8-.5c.2 1.7 1.5 3 3.3 3 1.8 0 3.4-1.3 3.4-3.2 0-1.9-1.5-2.6-3-3.2l-1-.4c-1.9-.9-3.6-1.8-3.6-4.2 0-2.5 2.1-4.2 4.6-4.2 1.8 0 3.4.9 4.2 2.5l-1.6 1z"/></g></svg>