<svg xmlns="http://www.w3.org/2000/svg" viewBox="0 0 612 267.9"><g fill="#6f7981"><path d="M161.9 221.4H160l-6.9-10.7c-.2-.3-.3-.6-.4-.8h-.1c.1.3.1.9.1 1.8v9.7H151V208h2l6.7 10.5c.3.4.5.7.5.9-.1-.4-.1-1-.1-2v-9.5h1.6v13.5zM172.9 216.9h-6.8c0 1.1.3 1.9.9 2.5.6.6 1.3.9 2.3.9 1.1 0 2.1-.4 3-1.1v1.4c-.8.6-2 .9-3.3.9-1.4 0-2.4-.4-3.2-1.3-.8-.9-1.2-2.1-1.2-3.7 0-1.5.4-2.7 1.3-3.7.8-.9 1.9-1.4 3.2-1.4 1.3 0 2.2.4 2.9 1.2.7.8 1 1.9 1 3.4v.9zm-1.6-1.3c0-.9-.2-1.6-.6-2.1-.4-.5-1-.7-1.8-.7-.7 0-1.3.3-1.8.8s-.8 1.2-.9 2h5.1zM179.7 221.3c-.4.2-.8.3-1.4.3-1.7 0-2.5-.9-2.5-2.8v-5.7h-1.7v-1.3h1.7v-2.3l1.5-.5v2.8h2.4v1.3h-2.4v5.4c0 .6.1 1.1.3 1.4.2.3.6.4 1.1.4.4 0 .7-.1 1-.3v1.3zM193.8 211.8l-2.9 9.6h-1.6l-2-6.9c-.1-.3-.1-.6-.2-.9 0 .2-.1.5-.2.9l-2.1 6.9h-1.5l-2.9-9.6h1.6l2 7.2c.1.2.1.5.1.9h.1c0-.3.1-.6.2-.9l2.2-7.2h1.4l2 7.2c.1.2.1.5.1.9h.1c0-.2.1-.5.2-.9l2-7.2h1.4zM199.6 221.6c-1.4 0-2.6-.4-3.4-1.3-.8-.9-1.3-2.1-1.3-3.6 0-1.6.4-2.9 1.3-3.8.9-.9 2.1-1.4 3.6-1.4 1.4 0 2.5.4 3.4 1.3.8.9 1.2 2.1 1.2 3.7 0 1.5-.4 2.8-1.3 3.7-.8.9-2 1.4-3.5 1.4zm.2-8.8c-1 0-1.8.3-2.3 1-.6.7-.9 1.6-.9 2.8 0 1.1.3 2 .9 2.7.6.7 1.4 1 2.3 1 1 0 1.8-.3 2.3-1 .5-.6.8-1.6.8-2.7 0-1.2-.3-2.1-.8-2.8-.6-.6-1.4-1-2.3-1zM211.9 213.3c-.3-.2-.7-.3-1.2-.3-.7 0-1.2.3-1.6.9-.4.6-.7 1.5-.7 2.5v4.9h-1.5v-9.6h1.5v2c.2-.7.6-1.2 1-1.6.5-.4 1-.6 1.5-.6.4 0 .7 0 .9.1v1.7zM221.5 221.4h-2.2l-4.2-4.6v4.6h-1.5v-14.2h1.5v9l4-4.4h2l-4.5 4.6 4.9 5zM233.1 208.5c-.3-.2-.6-.3-1-.3-1.1 0-1.6.7-1.6 2v1.5h2.3v1.3h-2.3v8.3H229V213h-1.6v-1.3h1.6v-1.6c0-1 .3-1.8.9-2.4.6-.6 1.3-.9 2.2-.9.5 0 .8.1 1.1.2v1.5zM238.4 221.6c-1.4 0-2.6-.4-3.4-1.3-.8-.9-1.3-2.1-1.3-3.6 0-1.6.4-2.9 1.3-3.8.9-.9 2.1-1.4 3.6-1.4 1.4 0 2.5.4 3.4 1.3.8.9 1.2 2.1 1.2 3.7 0 1.5-.4 2.8-1.3 3.7-.9.9-2.1 1.4-3.5 1.4zm.1-8.8c-1 0-1.8.3-2.3 1-.6.7-.9 1.6-.9 2.8 0 1.1.3 2 .9 2.7.6.7 1.4 1 2.3 1 1 0 1.8-.3 2.3-1 .5-.6.8-1.6.8-2.7 0-1.2-.3-2.1-.8-2.8-.5-.6-1.3-1-2.3-1zM250.6 213.3c-.3-.2-.7-.3-1.2-.3-.7 0-1.2.3-1.6.9-.4.6-.7 1.5-.7 2.5v4.9h-1.5v-9.6h1.5v2c.2-.7.6-1.2 1-1.6.5-.4 1-.6 1.5-.6.4 0 .7 0 .9.1v1.7zM259.3 216.3v5.1h-1.6V208h3.7c1.4 0 2.6.4 3.3 1.1.8.7 1.2 1.7 1.2 3s-.4 2.3-1.3 3.1c-.9.8-2.1 1.2-3.6 1.2h-1.7zm0-7v5.5h1.7c1.1 0 1.9-.2 2.5-.7.6-.5.9-1.2.9-2.1 0-1.8-1.1-2.7-3.2-2.7h-1.9zM276.3 221.4h-1.5v-5.5c0-2-.7-3-2.2-3-.8 0-1.4.3-1.9.9-.5.6-.8 1.3-.8 2.2v5.4h-1.5v-14.2h1.5v6.2c.7-1.2 1.8-1.8 3.2-1.8 2.2 0 3.2 1.3 3.2 3.9v5.9zM283.2 221.6c-1.4 0-2.6-.4-3.4-1.3-.8-.9-1.3-2.1-1.3-3.6 0-1.6.4-2.9 1.3-3.8.9-.9 2.1-1.4 3.6-1.4 1.4 0 2.5.4 3.4 1.3.8.9 1.2 2.1 1.2 3.7 0 1.5-.4 2.8-1.3 3.7-.9.9-2 1.4-3.5 1.4zm.1-8.8c-1 0-1.8.3-2.3 1-.6.7-.9 1.6-.9 2.8 0 1.1.3 2 .9 2.7.6.7 1.4 1 2.3 1 1 0 1.8-.3 2.3-1 .5-.6.8-1.6.8-2.7 0-1.2-.3-2.1-.8-2.8-.5-.6-1.3-1-2.3-1zM294.9 221.3c-.4.2-.8.3-1.4.3-1.7 0-2.5-.9-2.5-2.8v-5.7h-1.7v-1.3h1.7v-2.3l1.5-.5v2.8h2.4v1.3h-2.4v5.4c0 .6.1 1.1.3 1.4.2.3.6.4 1.1.4.4 0 .7-.1 1-.3v1.3zM301 221.6c-1.4 0-2.6-.4-3.4-1.3-.8-.9-1.3-2.1-1.3-3.6 0-1.6.4-2.9 1.3-3.8.9-.9 2.1-1.4 3.6-1.4 1.4 0 2.5.4 3.4 1.3.8.9 1.2 2.1 1.2 3.7 0 1.5-.4 2.8-1.3 3.7-.9.9-2.1 1.4-3.5 1.4zm.1-8.8c-1 0-1.8.3-2.3 1-.6.7-.9 1.6-.9 2.8 0 1.1.3 2 .9 2.7.6.7 1.4 1 2.3 1 1 0 1.8-.3 2.3-1 .5-.6.8-1.6.8-2.7 0-1.2-.3-2.1-.8-2.8-.6-.6-1.3-1-2.3-1zM315.7 211.8l-3.8 9.6h-1.5l-3.6-9.6h1.7l2.4 7c.2.5.3 1 .3 1.3.1-.5.2-.9.3-1.3l2.6-7h1.6zM321.4 221.6c-1.4 0-2.6-.4-3.4-1.3-.8-.9-1.3-2.1-1.3-3.6 0-1.6.4-2.9 1.3-3.8.9-.9 2.1-1.4 3.6-1.4 1.4 0 2.5.4 3.4 1.3.8.9 1.2 2.1 1.2 3.7 0 1.5-.4 2.8-1.3 3.7-.9.9-2 1.4-3.5 1.4zm.1-8.8c-1 0-1.8.3-2.3 1-.6.7-.9 1.6-.9 2.8 0 1.1.3 2 .9 2.7.6.7 1.4 1 2.3 1 1 0 1.8-.3 2.3-1 .5-.6.8-1.6.8-2.7 0-1.2-.3-2.1-.8-2.8-.5-.6-1.3-1-2.3-1zM330.2 221.4h-1.5v-14.2h1.5v14.2zM337.7 221.3c-.4.2-.8.3-1.4.3-1.7 0-2.5-.9-2.5-2.8v-5.7h-1.7v-1.3h1.7v-2.3l1.5-.5v2.8h2.4v1.3h-2.4v5.4c0 .6.1 1.1.3 1.4.2.3.6.4 1.1.4.4 0 .7-.1 1-.3v1.3zM346.7 221.4h-1.5v-1.5c-.7 1.2-1.7 1.7-3 1.7-1 0-1.7-.3-2.2-.8-.5-.5-.8-1.2-.8-2 0-1.8 1.1-2.8 3.2-3.1l2.9-.4c0-1.6-.7-2.4-2-2.4-1.2 0-2.2.4-3.1 1.2v-1.6c.9-.6 2-.9 3.3-.9 2.3 0 3.4 1.2 3.4 3.6v6.2zm-1.6-4.9l-2.3.3c-.7.1-1.3.3-1.6.5-.4.3-.5.7-.5 1.3 0 .5.2.9.5 1.1.3.3.8.4 1.3.4.8 0 1.4-.3 1.9-.8s.7-1.2.7-2v-.8zM350.4 209.3c-.3 0-.5-.1-.7-.3s-.3-.4-.3-.7c0-.3.1-.5.3-.7.2-.2.4-.3.7-.3.3 0 .5.1.7.3.2.2.3.4.3.7 0 .3-.1.5-.3.7-.2.2-.5.3-.7.3zm.7 12.1h-1.5v-9.6h1.5v9.6zM360.8 220.9c-.7.4-1.6.7-2.6.7-1.4 0-2.5-.4-3.3-1.3-.8-.9-1.3-2-1.3-3.5 0-1.6.5-2.9 1.4-3.8.9-1 2.1-1.4 3.6-1.4.8 0 1.6.2 2.2.5v1.6c-.7-.5-1.5-.8-2.3-.8-1 0-1.8.4-2.4 1.1-.6.7-.9 1.6-.9 2.8 0 1.1.3 2 .9 2.7.6.7 1.4 1 2.4 1 .8 0 1.6-.3 2.4-.8v1.2z"/></g><g fill="#6f7981"><path d="M396.5 209.3h-3.9v12H391v-12h-3.9v-1.4h9.3v1.4zM406.2 216.9h-6.8c0 1.1.3 1.9.9 2.5.6.6 1.3.9 2.3.9 1.1 0 2.1-.4 3-1.1v1.4c-.8.6-2 .9-3.3.9-1.4 0-2.4-.4-3.2-1.3-.8-.9-1.2-2.1-1.2-3.7 0-1.5.4-2.7 1.3-3.7.8-.9 1.9-1.4 3.2-1.4 1.3 0 2.2.4 2.9 1.2s1 1.9 1 3.4v.9zm-1.6-1.3c0-.9-.2-1.6-.6-2.1-.4-.5-1-.7-1.8-.7-.7 0-1.3.3-1.8.8s-.8 1.2-.9 2h5.1zM415 220.9c-.7.4-1.6.7-2.6.7-1.4 0-2.5-.4-3.3-1.3-.8-.9-1.3-2-1.3-3.5 0-1.6.5-2.9 1.4-3.8.9-1 2.1-1.4 3.6-1.4.8 0 1.6.2 2.2.5v1.6c-.7-.5-1.5-.8-2.3-.8-1 0-1.8.4-2.4 1.1-.6.7-.9 1.6-.9 2.8 0 1.1.3 2 .9 2.7.6.7 1.4 1 2.4 1 .8 0 1.6-.3 2.4-.8v1.2zM425.3 221.4h-1.5v-5.5c0-2-.7-3-2.2-3-.8 0-1.4.3-1.9.9-.5.6-.8 1.3-.8 2.2v5.4h-1.5v-14.2h1.5v6.2c.7-1.2 1.8-1.8 3.2-1.8 2.2 0 3.2 1.3 3.2 3.9v5.9zM436.2 221.4h-1.5v-5.5c0-2-.7-3.1-2.2-3.1-.8 0-1.4.3-1.9.9-.5.6-.8 1.3-.8 2.2v5.5h-1.5v-9.6h1.5v1.6c.7-1.2 1.8-1.8 3.2-1.8 1.1 0 1.9.3 2.4 1 .6.7.8 1.7.8 2.9v5.9zM443.1 221.6c-1.4 0-2.6-.4-3.4-1.3-.8-.9-1.3-2.1-1.3-3.6 0-1.6.4-2.9 1.3-3.8.9-.9 2.1-1.4 3.6-1.4 1.4 0 2.5.4 3.4 1.3.8.9 1.2 2.1 1.2 3.7 0 1.5-.4 2.8-1.3 3.7-.9.9-2 1.4-3.5 1.4zm.1-8.8c-1 0-1.8.3-2.3 1-.6.7-.9 1.6-.9 2.8 0 1.1.3 2 .9 2.7.6.7 1.4 1 2.3 1 1 0 1.8-.3 2.3-1 .5-.6.8-1.6.8-2.7 0-1.2-.3-2.1-.8-2.8-.5-.6-1.3-1-2.3-1zM451.9 221.4h-1.5v-14.2h1.5v14.2zM459 221.6c-1.4 0-2.6-.4-3.4-1.3-.8-.9-1.3-2.1-1.3-3.6 0-1.6.4-2.9 1.3-3.8.9-.9 2.1-1.4 3.6-1.4 1.4 0 2.5.4 3.4 1.3.8.9 1.2 2.1 1.2 3.7 0 1.5-.4 2.8-1.3 3.7-.9.9-2 1.4-3.5 1.4zm.1-8.8c-1 0-1.8.3-2.3 1-.6.7-.9 1.6-.9 2.8 0 1.1.3 2 .9 2.7.6.7 1.4 1 2.3 1 1 0 1.8-.3 2.3-1 .5-.6.8-1.6.8-2.7 0-1.2-.3-2.1-.8-2.8-.5-.6-1.3-1-2.3-1zM474.4 220.6c0 3.5-1.7 5.3-5.1 5.3-1.2 0-2.2-.2-3.1-.7v-1.5c1.1.6 2.1.9 3.1.9 2.4 0 3.5-1.3 3.5-3.8v-1.1c-.7 1.2-1.8 1.8-3.3 1.8-1.2 0-2.2-.4-2.9-1.3-.7-.9-1.1-2-1.1-3.4 0-1.6.4-2.9 1.2-3.9.8-1 1.9-1.4 3.2-1.4 1.3 0 2.3.5 2.9 1.6v-1.3h1.5v8.8zm-1.5-3.6v-1.4c0-.8-.3-1.4-.8-2-.5-.5-1.2-.8-1.9-.8-1 0-1.7.3-2.2 1-.5.7-.8 1.7-.8 2.9 0 1.1.3 1.9.8 2.6.5.6 1.2 1 2 1 .9 0 1.6-.3 2.1-.9.5-.6.8-1.4.8-2.4zM485.2 211.8l-4.4 11.1c-.8 2-1.9 3-3.3 3-.4 0-.7 0-1-.1v-1.4c.3.1.6.2.9.2.8 0 1.4-.5 1.7-1.4l.8-1.8-3.8-9.6h1.7l2.6 7.4c0 .1.1.3.2.7h.1c0-.2.1-.4.2-.7l2.7-7.4h1.6z"/></g><path fill="#6f7981" d="M368.7 199.8v-30.4c.1-16 10.6-28.8 26-31.7 16.7-3.2 33.4 9.1 36 25.9 2.6 16.3-9.8 31.9-28.1 32.8-5.6.3-11.2 0-16.8.1-1.7 0-2-.5-1.9-2.1.5-5.8 4.3-9.4 10-9.5 3.2-.1 6.4.3 9.6-.3 9.1-1.5 15.2-8.2 15.2-16.7 0-8.6-7.1-16.8-15.5-18.2-11.9-1.9-22.1 6.8-22.2 19.1-.1 15.8 0 31.7 0 47.5 0 2.7-.1 5.3-.2 8-.3 6.6-6.2 9.3-11.2 9.5-1.6.1-.9-1.4-.9-2.1-.1-8.4 0-16.9 0-25.3v-6.6zM437.5 137.5c0-10.6.1-21.2-.1-31.8 0-2.6.9-2.9 3.1-2.6 5.7.9 9 4.7 9 10.5.1 8.1.2 16.1.1 24.2 0 2.1.7 2.5 2.6 2.4 4.7-.1 9.5 0 14.2-.1 2 0 2.4.6 2.1 2.5-1.1 6.7-4.7 9.9-11.6 9.9-2.3 0-5.4-1-6.8.4-1.4 1.5-.4 4.5-.4 6.8 0 4.7-.5 9.5 1.8 13.9 3.8 7.5 9.7 11.7 18.3 11.6h4.3c6.2.1 10.1 3.8 10.5 10 0 .7.5 1.8-1 1.7-7.9-.4-15.9.9-23.8-1.1-13.6-3.4-22.3-14.5-22.3-28.5v-29.8zM299.1 179c.4-4.8-.6-10.7.6-16.6 3.2-15.6 17.8-26.4 33.5-24.8 15.8 1.6 28 15 28 30.9 0 8.5-.1 17.1.1 25.6 0 2.1-.6 2.6-2.6 2.2-6.4-1.1-9.6-4.7-9.7-11.2-.1-5.3 0-10.6 0-15.9 0-10.6-8-19.1-18.2-19.4-10.3-.3-19 7.8-19.5 18.4-.3 5.9-.1 11.7-.1 17.6 0 6.1-4.5 10.5-10.5 10.7-1.7 0-1.5-.9-1.5-2-.1-4.9-.1-9.7-.1-15.5z"/><g><path fill="#6f7981" d="M313.1 119.3c-3.2-3.3-6.3-6.8-9.5-10.2-2.2-2.4-4.7-4.4-7.9-5.2-4.1-1.7-8.1-1.5-12.1.2-1.8.5-3.3 1.4-4.6 2.7-2.9 2.1-4.6 5.1-5.7 8.5-1.9 0-3.8.1-5.7.1-1-.5-2.8.8-2.9-1.6-.2-4.8-1.2-9.5-3.1-14-.5-1.3-.3-2.2.9-2.8.9-.3 1.5.2 2.2.8 3 2.5 6.4 3.8 10.3 3.3 3.1-.1 5.8-.9 7.9-3.4 2.4-2.2 4.7-4.4 4.6-8 1.5-3.4 1.8-7.1 3-10.6.6-1.8 0-2.3-1.6-2.6-3.1-.6-6.2-1.5-9.2-2.3-3.8-1.6-7.7-1.8-11.5.1-2.9 1-4.9 3-6.3 5.6-2.2 3.3-2.3 6.9-1.7 10.7-1.9 1.2-3.1.9-4.4-1.1-1.9-3.1-4.6-5.5-7.4-7.7-.8-.6-1.6-1.1-1.2-2.3 1.2-1.6 2.2-3.3 2.9-5.2.6-.8 1.3-1 2.3-.8 1.8.3 3.7 1 5.5.1 2.1.1 4-.4 5.8-1.6 2.4-.9 4.5-2.2 5.6-4.6 2.3-2.2 3.5-4.9 3.9-8 .4-1.9.5-3.8.1-5.6-1.4-5.8-3.1-11.5-4.7-17.2-.4-1.3-1.3-1.1-2.2-.8-5 1.4-10 2.6-15 4.1-2.4.7-4.8 1.6-6.5 3.6-1.4 1.1-2.7 2.3-3.4 4-1.7 2.3-2.6 4.9-2.4 7.7-.8 2.7 0 5.2 1.1 7.7.4 1.9 1.6 3.4 2.7 4.9.6.7 1.4 1.3.8 2.5-1 1.7-2 3.4-2.9 5.1-.7 1-1.4.8-2.4.3-3.4-1.6-7-2.8-10.8-3.2-2.3-.2-3.2-1.1-2.7-3.4 4-1 7.2-3 9-6.8 1.9-2.8 2.4-5.8 1.6-9.1-.5-2.9-1.5-5.6-3.7-7.7-2.9-2.8-5.9-5.6-8.7-8.5-1.1-1.2-1.8-1.2-2.9 0-2.9 3-5.9 5.9-8.8 8.9-1.7 1.7-2.9 3.7-3.2 6.2-1.1 3.4-.7 6.6 1.1 9.7 1.7 4.1 5.1 6.2 9.1 7.4.4 2.1-.3 2.9-2.6 3-3.8.2-7.5 1.1-11 2.5-1 .4-2.1 1.1-2.9-.4-.4-1.5-1.2-2.8-2.2-4-1-1.4-1.1-2.6.4-3.8.8-.6 1.2-1.6 1.7-2.5 1.4-2 2.3-4.3 2.4-6.8.4-2.9.4-5.8-1.1-8.5-.7-2.6-2.2-4.7-4.4-6.4-2.1-1.8-4.3-3.4-7.2-4.1-4.8-1.2-9.7-2.5-14.4-3.9-1.8-.6-2.3.1-2.7 1.6-1.3 4.7-2.6 9.4-4 14.1-.9 3-1.1 5.9-.2 8.9.6 3.1 2 5.9 4.4 8 1.5 1.9 3.4 3.3 5.7 3.9 1.4.9 2.9 1.3 4.5 1.2.2.1.4.1.6.2 1.5.4 3.1.2 4.6-.1 1.2-.3 2.1 0 2.8 1.1.8 1.8 1.7 3.6 2.9 5.2-3.7 4-7.7 7.8-11.9 11.3-1.5-.8-2-1.9-1.5-3.7.4-1.4.6-3-.2-4.4.3-2.5-1.8-4-2.5-6.1-.8-1.2-1.6-2.5-3.3-2.8-4.2-3.6-8.8-3.5-13.6-1.7-3.3.8-6.6 1.6-9.8 2.4-.8.2-1.6.3-1.2 1.7.9 3.1 1.7 6.3 2.5 9.5.5 3.9 1.8 7.4 5 9.9 1.9 2 4.2 3.1 6.9 3.2 3.3.9 6.3.1 9.1-1.8 1.5-.6 3-1.4 4.6-.1.4.3.7.8.4 1.2-2.1 4-2.6 8.5-4.4 12.6-2.1-.2-4.2-.4-6.3-.5-.7 0-1.2-.2-1.6-.5-.2-.3-.4-.6-.6-.8-.5-3.3-2.1-5.9-4.5-8.1-2.2-2.3-4.7-4.1-8-4.4-3.5-1.1-7-1.1-10.4.5-.7.3-1.5.4-2.1.8-5.7 3.8-10.2 9-15.3 13.5-.9.8-.3 1.3.2 1.8 3.9 4.3 7.7 8.6 11.7 12.7 2.6 2.6 5.8 4.2 9.6 4.3 4.2 1.2 7.8-.6 11.4-2.5 3.8-2.2 6-5.6 7.4-9.6 1.3 0 2.6.2 3.9 0 2.6-.3 4.6.3 5.1 2.7 0 .1 0 .2.1.3v.1c0 .3.1.6.1.9-.1 4.4 1.6 8.3 2.8 12.4-1.2.3-2.1 1.4-3.4 1.3-2.4-2.8-5.4-4.3-9.1-4.5-3.9-.5-7.4.5-10.3 3.3-2.1 1.4-3.4 3.6-4.2 5.9-.8 2.4-1.5 4.9-2.1 7.3-.6 2.2-2.2 4.8-1.5 6.4.8 1.9 4.1 1.8 6.3 2.5 4.2 1.3 8.3 3.2 13 2.3 3.7-.3 6.3-2.4 8.5-5.2 2-1.9 2.9-4.3 2.9-7.1l.3-1.8c.6-1.5 1.9-2.4 3.6-3 2.7 4.3 6.7 7.6 10.1 11.2-2 2.1-2.5 5.4-5 7.1-3-1-6.1-1.2-9.2-.1-3 .4-5.4 1.8-7.5 4-2.6 2.1-4.2 4.8-4.9 8-1 2.6-1.1 5.4-.4 8.1 1.2 5.3 2.8 10.6 4.1 15.9.4 1.4.8 1.8 2.3 1.4 5-1.4 10.1-2.4 15.1-3.8 4.8-1.4 8.7-4.1 10.8-8.8 2.1-3.6 2.7-7.5 1.6-11.5-.2-2.8-1.6-5.1-3.2-7.2-.5-.7-1.5-1.2-1.1-2.4 1.4-2 2.7-4.1 3.7-6.3 1-.6 1.8.3 2.6.6 4.4 1.8 8.9 3.4 13.8 3.4.5.1.5.5.5.9-.2-.3-.4-.6-.5-.9 1 2.2.8 3.7-1.9 4.8-2.8 1.1-5.2 3-6.4 6-2.4 4.1-2.6 8.3-.5 12.6.1.3.1.6.2.8 3.2 5.1 8.2 8.4 12.3 12.5.8.8 1.4 0 1.9-.5 3.7-4 7.8-7.7 10.8-12.3 2.2-3.9 2.2-7.9.4-12-1.4-3.7-4.2-6.2-7.8-7.5-1.3-.5-1.9-1.1-2-2.5-.1-1.5 1-1.4 1.7-1.7.1 0 .2-.1.2-.1l3.6-.3c3.9-.4 7.4-2.4 11.2-3.1 1.2 1.9 2.5 3.8 3.7 5.8.7 1.1.1 1.8-.6 2.6-1.7 2-2.9 4.3-3.4 6.9-.6 2.7-.8 5.5.1 8.2.3 2.6 1.5 4.8 3.3 6.8 2.2 3.6 5.7 5.1 9.4 6.1 4.9 1.2 9.9 2.1 14.9 3.3 1.7.4 2.3.1 2.7-1.7 1-4.8 2.2-9.6 3.3-14.3.8-3.2.8-6.3-.6-9.4-.3-2.8-2-4.9-3.9-6.8-2-2.7-4.9-3.7-8-4.6-1.9-.8-3.9-.6-6-.7-1.5 0-3 1.3-4.5.2-1.1-2.4-3.1-4.3-3.9-6.8 3.5-2.4 6.6-5.4 9.1-8.8.9-1.2 1.7-1.5 3-.9.8.6 1 1.3.8 2.4-.5 2.5-.4 5 .7 7.4.6 2 1.7 3.8 3.4 5.1 1 1.5 2.5 2.2 4.1 2.9 4.5 2.1 8.9 1.2 13.2-.6 2.6-.7 5.2-1.6 7.9-2.2 1.7-.4 1.9-1.1 1.3-2.6-.9-2.5-1.7-5.2-2.5-7.7-.4-4.1-2-7.6-5.2-10.2-.1-.2-.3-.4-.4-.6l.1.1.4-.6c3.5 1.4 7 2.4 10.8 1.2 3.6-.3 6.6-2.2 9.2-4.6 3.6-3.4 7.1-6.9 10.7-10.2 1.5-1.5 1.3-2.2.2-3.3zm-46.7-34c.1-.4.2-.7.3-1.1 1.2-2.1 2.9-3.5 5.1-4.6 2.7-.3 5.3-.1 7.4 1.9 2.9 2.7 3.3 6.3 1 10.5-1.9 1.9-4.1 3.1-6.8 3-3.5-.6-5.8-2.6-7-5.8-.2-1.3-.2-2.6 0-3.9zm-90.2 1c-1.8 4-4.8 5.8-9.2 5.3-1.8-.5-3.2-1.6-4.6-2.8-2.1-3.8-2-7.2.4-10 2.4-2.7 5.5-3.2 9.8-1.7.9 1 1.9 1.9 2.8 2.9-.2.7.3 1.2.7 1.7.3 1.6.4 3.1.1 4.6zm-18.4 32.5c-3 2.5-6.3 3.5-10.2 2.4-7.4-4-8.4-10.2-2.9-16.7 2.2-1.5 4.7-2.2 7.3-2.2h.1c3.2.9 5.9 2.6 7.5 5.6 1.4 4 .9 7.6-1.8 10.9zm14.4 30c-.1 0-.1.1-.2.1-2 2.1-4.4 3.2-7.3 3-6.8-2.1-8.5-7-4.6-13.4 2.2-1.6 4.6-2.4 7.4-2.1 5.9 2.9 7.3 6.6 4.5 12.3.1.1.1.1.2.1zm19.8 32c-6.3 7.3-14.3 6-17.8-2.8-.5-3.9.6-7.2 3.6-9.8 3.2-2.1 6.7-2.3 10.2-1 1 .7 1.9 1.5 2.9 2.2 2.6 3.6 3 7.4 1.1 11.4zm57.5-11.4c1.8-1.1 3.7-2.2 5.8-2.7 2.9.2 5.6.8 7.9 2.8 1.4 1.7 2.4 3.5 2.9 5.7.6 8.5-8.6 14.2-16 8.5-1.2-1.4-2.2-2.9-2.9-4.5-.1 0-.1-.1-.2-.1h.2c-.7-3.6-.1-6.9 2.3-9.7zm-1.7-117.6c1.4-1.5 2.8-3 4.6-4.1 6.7-1.4 10 .2 13 6.2.8 3 .1 5.7-1.3 8.4-1.7 2-3.8 3.2-6.2 4.1-5.5.3-9.3-2.2-11.3-7.4-.2-2.5.3-4.9 1.2-7.2zm-31.9 9c-1.5-2.7-2.2-5.5-1-8.5 4.4-6 9.8-6 14.3 0 .9 2.8.8 5.4-.7 8-4.5 3.9-7.1 4-12.6.5zm-28.4 4c-2.6-.1-4.8-1.2-6.8-2.8-1.8-2.2-2.9-4.6-2.9-7.5 1.7-7.2 5.5-9.6 13.1-8.5 2.6 1.4 4.7 3.4 5.8 6.2.8 2.1-.2 4.2-.1 6.2-2 3.8-4.9 6.1-9.1 6.4zm39.1 108.7c2 3.6 1.6 7-1.1 10.2-4.7 3-7.7 2.7-11.8-1.1-1.8-3.3-1.8-6.5.4-9.7 4.8-3.9 8-3.7 12.5.6zm-6.3-21.1c-19.8 0-35.9-16.2-35.9-36.1 0-19.9 16.1-35.8 36.1-35.8 19.9 0 35.8 16 35.8 36 0 19.9-16.1 35.9-36 35.9zm44.1-15.8c-.7.5-1.3 1.4-2.4 1.1-1.6-.8-1.6-1.8-.9-3.3 1.6-3.5 2.8-7.1 3.2-11 2.7-.1 5.3-.1 8-.2 1.7 1.4 1.4 3.8 2.7 5.4.7.9 1.3 1.8 1.9 2.7 2.7 1.6 2.7 1.6 2.7 3.4-2-.4-3.9-1.5-6.1-1.1-3.6-.3-6.5.9-9.1 3zm11.8 18.1c-1.6.7-3.3.4-5 .5-1.2-.7-2.4-1.5-3.6-2.2-.7-1.3-1.4-2.7-2.2-4-.3-4.4 1.9-7.3 5.7-9.1 3-.3 5.7.3 7.9 2.4 3.2 5.6 2 10.3-2.8 12.4zm17.7-25.6c-3.1 1-6.1.7-8.9-.7-3.4-1.6-4.7-3.7-4.4-7.3.1-.9-.1-1.9.1-2.8.2-.8.5-1.6.7-2.3 1.1-1.3 2.3-2.6 3.4-3.9h.1c3.3-1.8 6.7-1.8 10.1-.2 6.8 5.7 6.3 12.2-1.1 17.2z"/></g></svg>