<svg xmlns="http://www.w3.org/2000/svg" viewBox="0 0 612 267.9"><path fill="#6f7981" d="M546 139.1c-1.8 0-3.5-.9-4.5-2.6-12.9-22.5-27.6-48-45.4-67.3-19.5-21.1-40-31.4-62.5-31.4-35.1 0-58 24.4-75.8 48.3-1.7 2.3-5 2.8-7.3 1.1-2.3-1.7-2.8-5-1.1-7.3C368.9 54 394 27.5 433.7 27.5c57.1 0 90.2 57.6 116.9 103.9 1.4 2.5.6 5.7-1.9 7.1-.9.4-1.8.6-2.7.6z"/><path fill="#6f7981" d="M419.6 130.6l-10.8-.5-8.5-.5c-7.1-.3-10.6-4.2-10.6-11.6 0-4.9 1.1-8 3.2-9.2 2.1-1.3 7.1-1.9 14.9-1.9 8.4 0 13.6.6 15.7 1.8 1.5.9 2.4 2.8 2.8 5.6.2 2.4 1.7 3.7 3.8 3.7h3.2c2.1 0 3.8-1.7 3.8-3.7-.6-10.8-10.1-16.2-28.6-16.2-11.9 0-19.8 1.3-23.8 4s-6 8.1-6 16.1c0 8.5 2.5 14.1 7.6 16.9 5 2.7 15.5 4 31.5 4 6.9 0 10.3 3.8 10.3 11.4 0 5.3-1.4 8.7-4.1 10.4-2.7 1.7-8.4 2.5-17.1 2.5-7.1 0-11.8-.8-14.2-2.4-2.3-1.5-3.5-4.6-3.6-9.1 0-2-1.7-3.7-3.9-3.7h-3.3c-2.1 0-3.9 1.7-3.9 3.7v.2c0 7.6 2.2 12.9 6.6 15.7 4.4 2.9 12.5 4.3 24.3 4.3 11.5 0 19.4-1.5 23.7-4.5 4.3-3 6.5-8.5 6.5-16.6 0-12.9-6.5-19.7-19.5-20.4M175.7 89.9c-5-5.6-16.9-8.4-35.8-8.4-18.8 0-30.8 2.8-35.8 8.4-5 5.6-7.5 18.9-7.5 39.8 0 26.2 2.2 42.2 6.6 48 4.4 5.7 16.6 8.6 36.7 8.6s32.3-2.9 36.7-8.6c4.4-5.7 6.6-21.7 6.6-48 0-21-2.5-34.2-7.5-39.8m-7.7 81.2c-2.7 3.6-12.1 5.4-28.1 5.4s-25.3-1.8-28.1-5.4c-2.8-3.6-4.1-16-4.1-37.2 0-21.1 1.4-33.5 4.1-37.1 2.7-3.6 12.1-5.4 28.1-5.4s25.4 1.8 28.1 5.4c2.8 3.6 4.1 16 4.1 37.1.1 21.2-1.3 33.6-4.1 37.2M265.3 99.2h-3.1c-2 0-3.7 1.7-3.7 3.7v37.5c0 8.8-1.5 14.8-4.6 18.1-3.1 3.3-8.8 4.9-17 4.9-6.3 0-10.5-1.1-12.7-3.3-2.2-2.2-3.2-6.6-3.2-13.1v-44c0-2.1-1.7-3.7-3.7-3.7h-3.1c-2 0-3.7 1.7-3.7 3.7v44.1c0 16.7 8.4 25.1 25.2 25.1 12 0 19.8-3.6 23.5-10.7l.2.2-.5 5.7c-.2 2.6 1.6 3.7 3.6 3.7h3c2 0 3.6-1.7 3.6-3.7V103c-.1-2.1-1.7-3.8-3.8-3.8M502.8 149.3c0-2.1-1.6-3.7-3.5-3.7h-2.9c-1.9 0-3.4 1.6-3.5 3.7v.3l-.1 3.5c0 6.9-3.4 10.3-10.1 10.3-6.8 0-10.2-3.8-10.2-11.5v-44h24c2 0 3.7-1.4 3.7-3.1v-2.6c0-1.7-1.7-3.1-3.7-3.1h-24V85.6c0-2-1.7-3.7-3.7-3.7h-3.1c-2 0-3.7 1.7-3.7 3.7v13.6h-6.2c-2 0-3.7 1.7-3.7 3.7v1.3c0 2 1.7 3.7 3.7 3.7h6.2v46.6c0 11.8 6.9 17.7 20.8 17.7 13.4 0 20.2-7.1 20.2-21.2l-.2-1.7zM357 153.2c-.1-2-1.8-3.5-3.8-3.5H350c-2 0-3.7 1.6-3.8 3.5-.2 4.1-1.5 6.7-3.8 8-2.5 1.5-8 2.2-16.5 2.2-8.9 0-14.6-1.5-17-4.7-2.4-3.1-3.6-10.3-3.6-21.6h48c2 0 3.7-1.7 3.7-3.7v-2c0-13.7-2.1-22.7-6.2-26.9-4.1-4.3-12.8-6.4-26-6.4-12.1 0-20.3 2.5-24.4 7.4-4.2 4.9-6.2 14.5-6.2 28.9 0 15.5 2.1 25.7 6.2 30.5 4.1 4.8 12.8 7.3 26.1 7.3 11.4 0 19.3-1.5 23.9-4.5 4.3-2.8 6.5-7.6 6.8-14.3v-.1c-.2 0-.2-.1-.2-.1M309.2 111c2.5-2.7 8-4.1 16.6-4.1 8.5 0 14 1.1 16.5 3.5 2.6 2.3 3.8 7.4 3.8 15.2l.1 3.4h-40.8c0-9.3 1.2-15.3 3.8-18M152.9 48.4c0 7.2-5.8 13-13 13s-13-5.8-13-13c0-7.1 5.8-13 13-13 7.2.1 13 5.9 13 13M564.6 133.9c0 10.2-8.3 18.5-18.5 18.5s-18.5-8.3-18.5-18.5 8.3-18.5 18.5-18.5 18.5 8.3 18.5 18.5"/><path fill="#6f7981" d="M239.9 240.4c-36.1 0-52.4-25.9-68.2-51-8.2-13-16.6-26.4-27.9-36.7-2.1-1.9-2.3-5.2-.3-7.3 1.9-2.1 5.2-2.3 7.3-.3 12.3 11.2 21.1 25.3 29.7 38.8 15.6 24.8 29.1 46.2 59.4 46.2 23.3 0 40.6-25.7 53-48.1 1.4-2.5 4.6-3.4 7.1-2s3.4 4.6 2 7.1c-6.1 10.9-14.4 24.8-24.9 35.6-11.6 11.7-24.2 17.7-37.2 17.7zM72.3 177.1c-1.3 0-2.7-.5-3.7-1.5-24.5-24.5-26.4-32.6-26.4-41.4 0-8.8 1.9-16.9 26.4-41.4 2-2 5.3-2 7.3 0s2 5.3 0 7.3c-23.3 23.3-23.3 29.3-23.3 34 0 4.8 0 10.7 23.3 34 2 2 2 5.3 0 7.3-1 1.2-2.3 1.7-3.6 1.7z"/></svg>