<svg xmlns="http://www.w3.org/2000/svg" width="86.5" height="64.673" viewBox="251.923 254.586 86.5 64.673" enable-background="new 251.923 254.586 86.5 64.673"><path fill="#515151" d="M304.193 276.575v-4.605l-5.938-1.319c-.202-.633-.46-1.241-.762-1.823l3.27-5.138-3.256-3.256-5.139 3.27c-.582-.301-1.189-.559-1.822-.762l-1.318-5.937h-4.604l-1.32 5.938c-.633.202-1.24.46-1.822.761l-5.139-3.269-3.256 3.256 3.27 5.138c-.301.583-.559 1.19-.761 1.823l-5.937 1.318v4.605l5.938 1.319c.202.633.46 1.24.761 1.823l-3.27 5.138 3.256 3.255 5.138-3.268c.583.301 1.189.559 1.823.761l1.319 5.937h4.604l1.319-5.937c.633-.203 1.239-.461 1.823-.762l5.138 3.269 3.256-3.256-3.269-5.138c.3-.583.559-1.189.761-1.823l5.937-1.318zm-17.267 3.453c-3.179 0-5.756-2.577-5.756-5.756 0-3.178 2.577-5.756 5.756-5.756 3.18 0 5.756 2.578 5.756 5.756 0 3.179-2.577 5.756-5.756 5.756zm24.69 30.01l1.452-3.545-4.155-2.887c.043-.551.036-1.1-.012-1.643l4.136-2.924-1.48-3.533-4.985.898c-.354-.416-.739-.807-1.162-1.16l.855-4.988-3.545-1.45-2.888 4.155c-.55-.045-1.099-.035-1.642.012l-2.925-4.137-3.532 1.48.897 4.986c-.413.354-.805.738-1.16 1.162l-4.986-.855-1.45 3.545 4.154 2.887c-.044.551-.036 1.1.011 1.643l-4.135 2.924 1.479 3.533 4.986-.898c.353.416.738.805 1.162 1.16l-.855 4.986 3.544 1.451 2.887-4.154c.551.043 1.101.035 1.643-.012l2.926 4.137 3.531-1.482-.896-4.984c.413-.354.805-.738 1.16-1.162l4.985.855zm-14.381-2.784c-2.446-1.002-3.617-3.799-2.616-6.246s3.797-3.617 6.245-2.617c2.445 1.002 3.617 3.799 2.616 6.246s-3.796 3.619-6.245 2.617zm37.188-33.909l-1.221-3.766-5.206.496c-.332-.464-.706-.892-1.105-1.289l1.311-5.068-3.526-1.799-3.335 4.036c-.556-.091-1.12-.142-1.692-.139l-2.653-4.505-3.766 1.221.496 5.206c-.464.333-.892.706-1.288 1.106l-5.068-1.311-1.8 3.526 4.036 3.334c-.091.556-.142 1.121-.138 1.692l-4.506 2.653 1.222 3.765 5.205-.496c.333.464.705.892 1.105 1.288l-1.311 5.069 3.526 1.799 3.335-4.037c.556.091 1.12.142 1.692.139l2.653 4.505 3.765-1.221-.495-5.205c.464-.333.893-.707 1.289-1.106l5.067 1.311 1.799-3.526-4.035-3.335c.091-.556.142-1.12.139-1.692l4.505-2.651zm-13.204 7.403c-2.6.844-5.391-.581-6.233-3.18-.843-2.6.581-5.391 3.181-6.233 2.6-.844 5.391.581 6.233 3.18.842 2.599-.582 5.391-3.181 6.233z"/></svg>