<svg xmlns="http://www.w3.org/2000/svg" viewBox="0 0 396.051 396.051"><path fill="#ffffff" d="M198.025 0C103.922 0 30.207 36.368 30.207 82.79v230.47c0 46.422 73.715 82.79 167.818 82.79s167.818-36.368 167.818-82.79V82.79C365.843 36.362 292.13 0 198.025 0zm0 11.934c84.497 0 155.884 32.448 155.884 70.857s-71.395 70.858-155.885 70.858c-84.497 0-155.884-32.448-155.884-70.857s71.383-70.856 155.885-70.856zM353.91 313.26c0 38.41-71.394 70.858-155.884 70.858-84.497 0-155.884-32.448-155.884-70.857v-45.64c24.488 30.526 84.258 51.607 155.884 51.607s131.396-21.075 155.884-51.607v45.64zm0-76.823c0 38.41-71.394 70.857-155.884 70.857-84.497 0-155.884-32.448-155.884-70.857v-45.64c24.488 30.53 84.264 51.606 155.884 51.606s131.396-21.075 155.884-51.607v45.64zm0-76.823c0 38.41-71.394 70.857-155.884 70.857-84.497 0-155.884-32.447-155.884-70.856v-45.647c24.488 30.538 84.264 51.613 155.884 51.613s131.396-21.075 155.884-51.613v45.647z" fill="#010002"/></svg>