<svg xmlns="http://www.w3.org/2000/svg" viewBox="0 0 204.993 204.993"><path fill="#ffffff" d="M113.71 202.935H92.164c-3.242 0-4.373.007-15.42-27.364l-8.533-3.467c-23.248 10.547-26 10.547-26.92 10.547h-1.78l-1.516-1.303-15.275-14.945c-2.324-2.32-3.13-3.124 8.824-30.137l-3.48-8.23C0 117.976 0 116.81 0 113.494V92.37c0-3.31 0-4.355 27.972-15.17l3.48-8.25c-12.645-26.602-11.775-27.428-9.28-29.776L38.597 23.07l2.04-.065c2.48 0 11.68 3.357 27.37 9.98l8.508-3.453c10.242-27.478 11.5-27.474 14.73-27.474h21.548c3.228 0 4.363.004 15.41 27.382l8.547 3.443c23.213-10.533 26-10.533 26.928-10.533h1.768l1.517 1.28 15.275 14.92c2.323 2.345 3.117 3.147-8.836 30.17l3.49 8.28c28.1 10.013 28.1 11.176 28.1 14.497v21.1c0 3.233 0 4.37-28.008 15.193l-3.457 8.256c12.58 26.487 11.75 27.317 9.394 29.69l-16.55 16.205-2.052.058c-2.47 0-11.65-3.36-27.317-9.992l-8.556 3.457c-10.27 27.472-11.437 27.472-14.733 27.472zm-19.307-8.722H111.4c1.95-3.976 6.165-14.516 9.54-23.595l.68-1.807 15.475-6.248 1.664.705c9.222 3.933 20.123 8.292 24.37 9.63l11.944-11.68c-1.517-4.205-6.116-14.494-10.264-23.173l-.837-1.764 6.403-15.285 1.743-.673c9.315-3.586 20.11-8.013 24.142-10.032V93.88c-4.08-1.918-14.83-6.01-24.096-9.294l-1.814-.648-6.445-15.3.77-1.725c3.964-8.947 8.374-19.5 9.787-23.753L162.49 31.454c-3.866 1.35-14.69 5.987-23.818 10.153l-1.7.78-15.475-6.238-.69-1.722c-3.66-9.13-8.204-19.716-10.254-23.635H93.57c-1.962 3.965-6.164 14.51-9.53 23.585l-.67 1.797-15.432 6.27-1.664-.712c-9.244-3.926-20.167-8.278-24.43-9.616l-11.92 11.688c1.495 4.198 6.108 14.48 10.242 23.16l.848 1.767L34.58 84.01l-1.733.67c-9.3 3.58-20.077 8.005-24.11 10.016v16.43c4.08 1.926 14.82 6.028 24.078 9.327l1.8.655 6.446 15.25-.768 1.72c-3.965 8.94-8.37 19.48-9.788 23.724l12 11.742c3.854-1.36 14.663-5.998 23.803-10.168l1.71-.784 15.444 6.277.692 1.72c3.67 9.133 8.2 19.7 10.25 23.623zm8.092-56.56c-19.76 0-35.85-15.772-35.85-35.16 0-19.37 16.088-35.133 35.85-35.133 19.748 0 35.8 15.765 35.8 35.134 0 19.387-16.052 35.16-35.8 35.16zm0-61.563c-14.956 0-27.113 11.846-27.113 26.405 0 14.57 12.154 26.426 27.113 26.426 14.93 0 27.078-11.856 27.078-26.425-.004-14.56-12.147-26.405-27.078-26.405z" fill="#010002"/></svg>