<svg id="Layer_1" xmlns="http://www.w3.org/2000/svg" viewBox="0 0 723.6 106.8"><g id="nano" fill="#FFF"><path d="M71.9 87.4L22.6 19.5v67.9h-2V17.5h3l49.3 67.9V17.5h2v69.9h-3zM100.8 66.1l-9.7 21.3h-2.4l32-69.9h2.2l32.4 69.9H153l-9.8-21.3h-42.4zm21-46.3l-20.1 44.3h40.6l-20.5-44.3zM220.4 87.4l-49.3-67.9v67.9h-2V17.5h3l49.3 67.9V17.5h2v69.9h-3zM313 52.4c0 19.2-16.2 35-35.9 35s-35.9-15.8-35.9-35 16.2-34.9 35.9-34.9S313 33.2 313 52.4zm-69.8 0c0 18.1 15.3 33 33.9 33 18.6 0 33.9-14.9 33.9-33s-15.3-32.9-33.9-32.9c-18.6 0-33.9 14.8-33.9 32.9z"/></g><g id="is" fill="#FFF"><path d="M355.8 65.6c.2 0 .3 0 .5-.1s.4-.2.8-.5c.3-.3.8-.6 1.4-1.1.6-.5 1.3-1.1 2.1-1.8l.7.1.8 1.4c-2.1 2.1-3.8 3.7-5.2 4.7-1.4 1.1-2.5 1.6-3.2 1.6-.7 0-1.1-.2-1.4-.5-.3-.4-.4-.9-.4-1.6.6-3.5 1.1-6.6 1.5-9.5l.6-3.6c.2-1.2.3-2.3.5-3.4.2-1 .3-1.9.4-2.6.1-.7.1-1.2.1-1.5 0-.9-.2-1.6-.6-2-.4-.4-1-.6-2-.6H350l.4-2.3h3.1c1.1 0 2.2-.1 3.2-.1 1.2 0 2.3-.1 3.5-.2l.5.7c-.7 2.2-1.3 4.6-1.9 7.1-.6 2.2-1.1 4.6-1.6 7.3s-1 5.4-1.4 8.2v.3zm2.7-31.9c-.8 0-1.5-.3-1.9-.8s-.6-1.2-.6-1.9c0-1 .4-2 1.1-2.8.7-.8 1.6-1.2 2.8-1.2.8 0 1.4.3 1.8.8s.6 1.2.6 1.8c0 1-.4 2-1.1 2.8-.7.9-1.6 1.3-2.7 1.3zM367.1 60.9c0 2 .5 3.6 1.5 4.6 1 1.1 2.4 1.6 4.3 1.6 1.2 0 2.1-.4 3-1.1.8-.8 1.2-1.7 1.2-2.7 0-1-.4-2-1.1-2.9-.7-.9-1.6-1.7-2.7-2.6-.7-.6-1.4-1.1-2-1.7-.7-.6-1.3-1.2-1.8-1.9s-1-1.4-1.3-2.1c-.3-.7-.5-1.5-.5-2.4 0-1.1.2-2.2.8-3.2s1.2-1.9 2-2.7c.9-.8 1.9-1.4 3-1.8 1.1-.5 2.3-.7 3.6-.7 1.4 0 2.6.2 3.7.6s1.9 1 2.5 1.8c-.2.7-.6 1.5-1 2.5-.4.9-.8 1.7-1 2.2h-.8c-.4-1.3-1.1-2.3-2-3.1-.9-.7-2-1.1-3.2-1.1-1 0-1.8.3-2.4.9-.7.6-1 1.4-1 2.3 0 .7.2 1.3.5 1.9.3.6.8 1.2 1.3 1.7.7.7 1.4 1.4 2.3 2.2.9.7 1.7 1.5 2.5 2.2.8.8 1.4 1.6 2 2.5s.8 1.9.8 3c0 1.2-.3 2.3-.8 3.4s-1.3 2-2.2 2.9c-.9.8-2 1.5-3.2 2-1.2.5-2.4.8-3.7.8-1.8 0-3.4-.3-4.7-.9-1.3-.6-2-1.4-2.4-2.5.1-.4.3-.9.5-1.5s.4-1.1.6-1.6l.6-1.5c.2-.5.4-.8.5-1.1h.6z"/></g><g id="huge-fill" fill="#FFF"><path d="M417.2 17.4h18.3v28.8h29V17.4h17.8v70h-17.8V60.2h-29v27.2h-17.8v-70M498.1 17.4h18.3V58c0 9.5 6.1 15.3 14.6 15.3 8.4 0 14.1-5.8 14.1-15.3V17.4h17.7V58c0 18.5-12.3 30.2-31.9 30.2-19.7 0-32.3-11.7-32.3-30.2V17.4M641.7 27.2l-10 12.1c-5.1-4.7-12.2-7.6-18.7-7.6-11.5 0-20.3 9-20.3 20.7 0 11.9 8.9 20.9 20.5 20.9 3.6 0 8.2-1.3 12.4-3.4V51.8H641v27.3c-7.5 5.3-19.3 9.1-29.1 9.1-21.3 0-37.4-15.4-37.4-35.8 0-20.3 16.5-35.6 38.6-35.6 10.4 0 21.8 4.3 29 10.7M656.4 17.4h55.3v14h-37v13.9h33.4v14h-33.4v14.1h38.1v14h-55.9v-70"/></g><g id="huge-line" fill="none" stroke="#FFF" stroke-miterlimit="10"><path d="M417.2 17.4h18.3v28.8h29V17.4h17.8v70h-17.8V60.2h-29v27.2h-17.8v-70M498.1 17.4h18.3V58c0 9.5 6.1 15.3 14.6 15.3 8.4 0 14.1-5.8 14.1-15.3V17.4h17.7V58c0 18.5-12.3 30.2-31.9 30.2-19.7 0-32.3-11.7-32.3-30.2V17.4M641.7 27.2l-10 12.1c-5.1-4.7-12.2-7.6-18.7-7.6-11.5 0-20.3 9-20.3 20.7 0 11.9 8.9 20.9 20.5 20.9 3.6 0 8.2-1.3 12.4-3.4V51.8H641v27.3c-7.5 5.3-19.3 9.1-29.1 9.1-21.3 0-37.4-15.4-37.4-35.8 0-20.3 16.5-35.6 38.6-35.6 10.4 0 21.8 4.3 29 10.7M656.4 17.4h55.3v14h-37v13.9h33.4v14h-33.4v14.1h38.1v14h-55.9v-70"/></g></svg>