<svg xmlns="http://www.w3.org/2000/svg" viewBox="0 122.7 612 546.5"><path fill="#ffffff" d="M609.4 260.8L466.8 125.2c-1.7-1.7-4-2.4-6.3-2.3h-62.8c-.5-.1-1-.1-1.5-.1-4.6 0-8.4 3.7-8.4 8.4 0 1.7-.1 3.3-.2 5-10.8 25.8-37.7 38.3-82.2 38.3S234 162 223.2 136.2c-.1-1.7-.2-3.3-.2-5 0-4.6-3.7-8.4-8.4-8.4-.5 0-1 0-1.5.1h-63.2c-.2 0-.3 0-.5.1-.1 0-.2.1-.4.1-.1 0-.3.1-.4.1-.1 0-.2.1-.4.1-.1 0-.3.1-.4.1-.1 0-.2.1-.4.2-.1.1-.3.1-.4.2-.1.1-.2.1-.3.2-.1.1-.2.1-.4.2-.1.1-.2.2-.3.2-.1.1-.2.2-.3.2l-.3.3-.2.2L2.6 260.8c-3.2 3.1-3.5 8.2-.5 11.6l79.5 90.8c1.6 1.9 4 2.9 6.3 2.9 1.7 0 3.3-.5 4.8-1.5l24.8-17.2.5 313.6c0 4.6 3.7 8.3 8.4 8.3h358.4c4.6 0 8.4-3.7 8.4-8.4V346.3l26.4 18.3c1.4 1 3.1 1.5 4.8 1.5 2.3 0 4.7-1 6.3-2.9l79.5-90.8c2.7-3.4 2.4-8.5-.8-11.6zm-303.9-69.7c29.3 0 52.2-5 69.1-15.3-14.7 22.6-40.2 37.6-69.1 37.6-28.9 0-54.4-15-69.1-37.6 16.9 10.3 39.8 15.3 69.1 15.3zm217.3 155.5L493 325.9v-33.2c0-4.6-3.7-8.4-8.4-8.4s-8.4 3.7-8.4 8.4v359.8H134.7L134 241c0-4.6-3.7-8.3-8.4-8.3-4.6 0-8.3 3.8-8.3 8.4l.1 86-28.2 19.6-69.3-79.2 134.5-127.8h52.4c0 .1 0 .1.1.2 4.4 50.6 47 90.4 98.7 90.4s94.3-39.8 98.7-90.4c0-.1 0-.1.1-.2h53.4l134.4 127.8-69.4 79.1z"/></svg>