<svg xmlns="http://www.w3.org/2000/svg" viewBox="0 0 171.991 171.991"><path fill="#ffffff" d="M85.996 171.99c-.497.005-.996-.005-1.495-.014-.147.007-.303.003-.443.01-.296 0-.59-.015-.882-.043-28.567-.926-53.65-15.85-68.608-38.112-.168-.184-.31-.394-.416-.623C5.19 119.614-.022 103.337.003 85.872c.033-22.97 9.01-44.552 25.274-60.77C40.902 9.522 61.462.682 83.42.04c.293-.026.628-.008.884-.04.15 0 .302.004.452.012.455-.007.907-.008 1.362-.01 22.97.033 44.552 9.01 60.77 25.274 16.22 16.265 25.134 37.873 25.1 60.843-.024 17.447-5.275 33.694-14.26 47.255-.115.257-.273.49-.464.692-15.472 22.868-41.65 37.92-71.268 37.922zm-2.917-5.118c.482.04.967.07 1.454.09 4.753-.513 9.843-8.872 13.71-22.585.85-3.017 1.626-6.228 2.327-9.605l-32.918-.047c.69 3.38 1.458 6.593 2.3 9.612 3.688 13.226 8.528 21.484 13.127 22.535zm22.59-32.093c-.776 3.865-1.65 7.528-2.614 10.953-2.558 9.073-5.596 15.887-9.01 20.295 13.777-3.29 25.814-14.827 33.9-31.217l-22.275-.03zm-61.765-.09c7.113 14.52 17.33 25.252 29.125 29.84-2.972-4.405-5.63-10.724-7.895-18.85-.955-3.428-1.818-7.096-2.583-10.963l-18.647-.027zm89.49.13c-5.464 11.752-12.837 21.39-21.442 27.903 15.5-5.258 28.908-15.09 38.61-27.88l-17.17-.024zm-112.105-.162c9.665 12.818 23.043 22.688 38.526 27.99-8.586-6.54-15.93-16.196-21.36-27.966l-17.166-.024zm114.26-4.836l18.514.026c7.732-11.96 12.4-26.078 12.883-41.237l-23.325-.032c-.31 15.027-3.217 29.097-8.07 41.244zm-28.948-.042l23.624.034c5.033-11.964 8.074-26.084 8.396-41.243l-28.545-.04c-.142 14.756-1.344 28.878-3.475 41.25zm-39.895-.056l34.822.05c2.175-12.285 3.403-26.427 3.546-41.25l-41.798-.06c.1 14.823 1.29 28.968 3.43 41.26zm-25.066-.036l19.995.028c-2.096-12.38-3.257-26.503-3.356-41.26L33.36 88.42c.28 15.16 3.28 29.29 8.28 41.268zm-23.837-.035l18.512.026c-4.82-12.162-7.685-26.24-7.953-41.268L5.037 88.38c.44 15.16 5.067 29.29 12.766 41.273zM143.63 83.578l23.325.033c-.41-14.332-4.53-28.033-11.902-39.995l-18.81-.026c4.586 12.1 7.137 25.757 7.387 39.988zm-33.546-.048l28.545.04c-.262-14.335-2.945-28.027-7.753-39.99l-23.938-.033c1.962 12.07 3.048 25.732 3.144 39.983zm-46.798-.067l41.798.06c-.097-14.313-1.208-27.993-3.21-39.983l-35.262-.05c-2.038 11.983-3.188 25.66-3.326 39.973zM33.37 83.42l24.916.036c.136-14.25 1.262-27.91 3.26-39.975l-20.31-.028C36.393 55.4 33.67 69.085 33.37 83.42zm-28.327-.04l23.325.033c.29-14.23 2.88-27.88 7.5-39.97L17.06 43.42C9.654 55.358 5.496 69.048 5.043 83.38zm129.15-44.794l17.51.024c-2.5-3.45-5.288-6.73-8.354-9.804-8.872-8.896-19.446-15.478-30.992-19.438 5.423 4.14 10.42 9.602 14.81 16.27 2.642 4.01 4.99 8.348 7.024 12.948zm-28.135-.04l22.635.032c-1.698-3.594-3.602-7.002-5.7-10.19-7.946-12.065-17.932-19.795-28.72-22.402 3.403 4.42 6.422 11.24 8.954 20.32 1.06 3.803 2.006 7.9 2.83 12.24zm-38.525-.056l33.433.048c-.755-3.85-1.608-7.49-2.555-10.89-3.825-13.717-8.89-22.09-13.64-22.62-.488.017-.976.045-1.462.084-4.602 1.04-9.463 9.284-13.188 22.497-.957 3.393-1.82 7.033-2.587 10.88zm-24.1-.035l19.007.027c.838-4.338 1.795-8.43 2.866-12.23 2.29-8.122 4.965-14.434 7.95-18.83-8.993 3.466-17.28 10.582-24.092 20.86-2.108 3.182-4.022 6.585-5.73 10.173zm-23.01-.032l17.513.024c2.048-4.594 4.407-8.923 7.06-12.927 4.412-6.656 9.423-12.102 14.858-16.228-11.556 3.928-22.15 10.48-31.046 19.35-3.076 3.067-5.875 6.337-8.384 9.78z"/></svg>