<svg xmlns="http://www.w3.org/2000/svg" viewBox="0 0 309 297.5"><g fill="#B0832D"><path d="M28.5 54.3c-8 0-13.6-5.3-13.6-9.3V22c0-4.1 5.5-9.3 13.6-9.3S41.8 18 41.8 22v6.6H31V23c0-1-1.1-1.7-2.4-1.7-1.3 0-2.4.6-2.4 1.7v20.8c0 1 1.1 1.7 2.4 1.7 1.3 0 2.4-.6 2.4-1.7v-5.5h10.9v6.6c-.1 4.1-5.3 9.4-13.4 9.4zM57.8 54.3c-7.5 0-13.2-4.4-13.2-9.8V22.4c0-5.4 5.6-9.8 13.2-9.8S71 17 71 22.4v22.1c0 5.3-5.6 9.8-13.2 9.8zM60.1 23c0-1-1-1.7-2.2-1.7s-2.3.7-2.3 1.7v20.8c0 1 1 1.7 2.2 1.7s2.2-.6 2.2-1.7V23zM102.1 53.3V26.4l-5.8 26.8H89l-5.3-26.8v26.8h-9.5V13.5h14.7l4.6 19.1L98 13.5h14.9v39.7h-10.8zM130.5 39.5h-3.4v13.8h-10.7V13.5h14.1c5.1 0 9.9 3.2 9.9 8.2v9.4c0 5.2-4.8 8.4-9.9 8.4zm-.1-16.3c0-1.1-.7-1.6-1.8-1.6h-1.5v9.8h1.5c1.1 0 1.8-.4 1.8-1.6v-6.6zM156.3 54.3c-7.5 0-13.2-4.4-13.2-9.8V22.4c0-5.4 5.6-9.8 13.2-9.8 7.5 0 13.2 4.4 13.2 9.8v22.1c0 5.3-5.6 9.8-13.2 9.8zm2.2-31.3c0-1-1-1.7-2.2-1.7-1.2 0-2.2.6-2.2 1.7v20.8c0 1 1 1.7 2.2 1.7 1.2 0 2.2-.6 2.2-1.7V23zM185 54.3c-8.1 0-13.1-3.7-13.1-9.8V40h9.3v3.4c0 1.5 1.2 2.6 3.2 2.6s3-.9 3-2.6c0-3.3-2.5-4.5-8.1-8-5-3.1-7.2-7.6-7.2-12.1 0-5.4 4.4-10.7 13.1-10.7 7 0 11.9 4.4 11.9 9.8v4h-9.3v-3.3c0-1.4-1.1-2.3-2.5-2.3s-2.8.8-2.8 2.3c0 4 1.4 4.6 7.1 7.7 5.2 2.8 8.2 7.8 8.2 12.7-.1 5.5-4.6 10.8-12.8 10.8zM200.3 53.3V13.5H211v39.7h-10.7zM231.9 21.6v31.7h-10.7V21.6h-7.5v-8h25.5v8h-7.3zM241.7 53.3V13.5h21v7.8h-10.3v7.8h6.8v7.5h-6.8v8.2h10.3v8.3h-21zM278 54.3c-8.1 0-13.1-3.7-13.1-9.8V40h9.3v3.4c0 1.5 1.2 2.6 3.2 2.6s3-.9 3-2.6c0-3.3-2.5-4.5-8.1-8-5-3.1-7.2-7.6-7.2-12.1 0-5.4 4.4-10.7 13.1-10.7 7 0 11.9 4.4 11.9 9.8v4h-9.3v-3.3c0-1.4-1.1-2.3-2.5-2.3s-2.8.8-2.8 2.3c0 4 1.4 4.6 7.1 7.7 5.2 2.8 8.2 7.8 8.2 12.7-.1 5.5-4.6 10.8-12.8 10.8z"/></g><g fill="#B0832D"><path d="M61.3 279.9V234H48.9v45.9H14.6V174h34.3v37.7h12.4V174h35.8v105.9H61.3zM150 282.5c-26.1 0-38-11.8-38-26.2V174h35v80.6c0 2.8 1.8 4.5 6 4.5 4.5 0 6.1-1.7 6.1-4.5V174h35.2v82.4c.1 14.4-18 26.1-44.3 26.1zM261.1 279.9h-50V174h50c16.3 0 30.1 7.3 30.1 20.7v13.5c0 5-4.4 11-13.1 13.8 8.7 2.8 13.1 8.6 13.1 13.6v23.7c0 13.3-13.8 20.6-30.1 20.6zm-1.7-84.3c0-3-2.2-4.2-5.9-4.2h-7.4v23.5h7.4c3.6 0 5.9-1.2 5.9-4.1v-15.2zm0 40.6c0-2.9-2.2-4.1-5.9-4.1h-7.4v29.5h7.4c3.6 0 5.9-1.2 5.9-4.2v-21.2z"/></g><g fill="#4E4139"><path d="M35.9 125.9H15.1V65.3h20.8c7 0 13 4.9 13 12.6v35.5c0 7.6-6 12.5-13 12.5zM35.1 80c0-1.7-.9-2.4-2.5-2.4h-2.8v36.2h2.8c1.6 0 2.5-.7 2.5-2.4V80zM55.7 125.9V65.3h28.9v11.9H70.4v11.9h9.4v11.5h-9.4v12.6h14.2v12.7H55.7zM105.2 127.5c-11.2 0-18-5.6-18-15v-6.9H100v5.2c0 2.4 1.6 4 4.4 4 2.8 0 4.1-1.4 4.1-3.9 0-5-3.4-6.9-11.1-12.3-6.8-4.8-9.8-11.6-9.8-18.6 0-8.3 6.1-16.3 18-16.3 9.6 0 16.3 6.8 16.3 15v6.1h-12.8v-5c0-2.1-1.6-3.5-3.5-3.5s-3.9 1.2-3.9 3.6c0 6.1 1.9 7.1 9.7 11.8 7.2 4.3 11.3 11.9 11.3 19.4-.1 8.4-6.3 16.4-17.5 16.4zM128.9 125.9V65.3h14.7V126h-14.7zM180 125.9l-1.6-3.3c-1.3 2-6.3 4.9-10.5 4.9-10.7 0-16.7-7.4-16.7-14.3V78c0-6.2 7.5-14.3 18.6-14.3 11.1 0 18.4 8 18.4 14.3v10.1H173v-8.3c0-1.6-1.4-2.6-3.2-2.6-1.8 0-3.3 1-3.3 2.6v31.3c0 1.6 1.4 3 3.7 3 2.5 0 3.7-1.4 3.7-3v-6h-4.1v-9.6h18.8v30.4H180zM219.3 125.9L207 97.4v28.5h-13.1V65.3h12.7l11.7 29.1V65.3h13V126h-12zM284.1 115.8c3 3.9 5.2 6.4 8.3 10.2h-15.6c-1-1.1-2-2.2-2.8-3.4-2.8 2.3-7.4 4.4-13.6 4.4-13.4 0-18.6-8.5-18.6-16 0-7.4 3.7-12.8 9.6-16.2v-.3c-2-2.3-3.8-6.5-3.8-10.5 0-7.3 5.4-15.4 16.4-15.4 8.5 0 14.9 5.4 14.9 13.8 0 5.6-3 10.6-9.6 14.3v.3c2.3 2.8 7 8.7 9.1 10.9 0 0 8-4.2 9-6.2v11.5c-1.9 2.2-3.3 2.6-3.3 2.6zm-21.8.2c2.3 0 4.3-.8 5.4-1.8-3.2-3.4-6.7-7.8-10.3-12.2-1.8 1.6-2.9 3.6-2.9 6.3.1 4 2.9 7.7 7.8 7.7zm1.3-38.2c-2.4 0-3.8 2.3-3.8 4.7 0 2.3.9 4.5 3.3 7.2 3.1-2.6 4.3-4.5 4.3-7 0-2.4-1.3-4.9-3.8-4.9z"/></g><g fill="#4E4139"><path d="M32.5 168.3v-21.1l-4.1 21.1H24l-3.7-21.1v21.1h-6v-33.1h10.1l2.4 15.1 2.6-15.1H39v33.1h-6.5zM54.4 168.3l-.4-5.2h-3l-.6 5.2h-5.9l4.4-33.1h7.9l4.5 33.1h-6.9zm-1.6-21.9l-1.2 10.9h2.1l-.9-10.9zM78.3 168.3l-5.6-16.8v16.8h-5.5v-33.1h6l5.3 17.1v-17.1H84v33.1h-5.7zM98.3 168.8c-4.4 0-7.7-3.1-7.7-6.5v-27H97v26.8c0 .6.6 1 1.3 1 .7 0 1.3-.4 1.3-1v-26.8h6.1v27c0 3.3-3 6.5-7.4 6.5zM118.9 140.7v8.1h4.8v5.7h-4.8v13.8h-6.6v-33.1h13v5.5h-6.4zM138.8 168.3l-.4-5.2h-3l-.6 5.2h-5.9l4.4-33.1h7.9l4.5 33.1h-6.9zm-1.6-21.9l-1.2 10.9h2.1l-.9-10.9zM159.3 168.8c-4.4 0-8-3.1-8-6.5v-20.9c0-3.4 3.6-6.5 8-6.5s7.9 3.1 7.9 6.5v6.6h-6.6v-6.4c0-.6-.6-1-1.3-1s-1.3.4-1.3 1v20.6c0 .6.6 1 1.3 1s1.3-.4 1.3-1v-6.4h6.6v6.6c-.1 3.2-3.5 6.4-7.9 6.4zM183.7 140.9v27.4h-6.6v-27.4h-4.5v-5.7H188v5.7h-4.3zM201.3 168.8c-4.4 0-7.7-3.1-7.7-6.5v-27h6.4v26.8c0 .6.6 1 1.3 1s1.3-.4 1.3-1v-26.8h6.1v27c-.1 3.3-3.1 6.5-7.4 6.5zM224.9 168.3c-.5-1.4-.8-3.4-.8-5.1v-6.9c0-.7-.5-1.3-1.4-1.3h-.9v13.4h-6.6v-33.1h8.1c3.2 0 7 1.8 7 6v7.4c0 1.6-1.1 2.8-2.8 3.6 1.7.9 2.9 2.1 2.9 3.6v6.8c0 2.1.5 3.9.8 5.5h-6.3zm-1-25.9c0-1-.4-1.3-1.1-1.3h-1v8.4h1c.7 0 1.1-.4 1.1-1.3v-5.8zM237.2 168.3v-33.1h6.6v33.1h-6.6zM262 168.3l-5.6-16.8v16.8h-5.5v-33.1h6l5.3 17.1v-17.1h5.5v33.1H262zM286.1 168.3l-.6-1.2c-.9.8-2.5 1.6-4.2 1.6-4.2 0-7-2.8-7-6.5v-20.9c0-3.4 3.4-6.5 7.8-6.5s7.9 3.1 7.9 6.5v6.8h-6.5v-6.6c0-.6-.6-1-1.3-1-.7 0-1.3.4-1.3 1v21.1c0 .5.6 1 1.3 1 .7 0 1.3-.5 1.3-1V157H282v-4.8h8.1v16.2h-4z"/></g></svg>