<svg xmlns="http://www.w3.org/2000/svg" viewBox="0 0 271.3 90.8"><g fill="#ababab"><path d="M103.6 62.1h-3.4c-1 0-1.8-.3-2.4-.9-.6-.6-.9-1.4-.9-2.4V45.7c0-1.5-.5-2.7-1.4-3.4-.9-.7-2-1.1-3.1-1.1s-2.2.4-3.1 1.1c-.9.7-1.3 1.9-1.3 3.4v16.4h-6.8v-15c0-4.4 1.1-7.3 3.4-8.8 2.3-1.5 4.8-2.3 7.6-2.4 2.8 0 5.4.7 7.8 2.2 2.4 1.5 3.6 4.5 3.6 9v15zM123.1 61.1c-1.4.7-2.8 1.1-4.3 1.3-1.5.2-2.8.2-4 .2-2.3 0-4.3-.6-6.1-1.9-1.7-1.3-2.6-3.3-2.6-6.2 0-2.7.8-4.6 2.4-5.8 1.6-1.2 3.6-1.9 6-2.3.3 0 .7 0 1.2-.1.4-.1 1-.2 1.5-.2 2.8-.4 4.3-1.2 4.3-2.5 0-1-.5-1.6-1.5-1.9-1-.3-1.9-.4-2.8-.4-.9 0-1.7.1-2.4.4-.7.3-1.2.7-1.5 1.4h-6.5c.3-2 1.2-3.6 2.7-4.9 1.7-1.5 4.2-2.2 7.4-2.2 3.6 0 6.3.6 8.1 1.8 1.9 1.3 2.8 3.1 2.8 5.4V52c0 2.6-.5 4.6-1.4 6-.9 1.4-2 2.4-3.3 3.1zm-1.6-11.9c-.9.5-2.2.9-3.8 1.3l-2.2.5c-1.2.3-2 .7-2.5 1.3-.5.7-.7 1.4-.7 2.1 0 1 .3 1.7.9 2.3.6.5 1.4.8 2.5.8 1.8 0 3.2-.5 4.3-1.5 1-1 1.5-2.4 1.5-4.2v-2.6zM153.2 62.1h-3.4c-1 0-1.8-.3-2.4-.9-.6-.6-.9-1.4-.9-2.4V45.7c0-1.5-.5-2.7-1.4-3.4-.9-.7-2-1.1-3.1-1.1-1.2 0-2.2.4-3.1 1.1-.9.7-1.4 1.8-1.4 3.4v16.4h-6.8v-15c0-4.4 1.1-7.3 3.4-8.8 2.3-1.5 4.8-2.3 7.6-2.4 2.8 0 5.4.7 7.8 2.2 2.4 1.5 3.6 4.5 3.6 9v15zM159.4 59.8c-1.4-1.2-2.3-2.7-2.9-4.7-.6-2-.9-4-.9-6.1 0-1.7.2-3.5.7-5.2.5-1.7 1.2-3.2 2.3-4.3 1.7-1.9 3.8-3.1 6.5-3.4 2.6-.4 5-.1 7.1.6 2.4 1 4.3 2.6 5.4 5 1.1 2.1 1.6 4.6 1.6 7.4 0 2.1-.2 3.8-.7 5.3-.5 1.5-1 2.7-1.7 3.8-1.5 2.1-3.5 3.4-5.9 4-2.1.6-4.3.6-6.4.1-2.1-.5-3.8-1.3-5.1-2.5zm4.6-17c-1.4 1.5-2 3.7-1.8 6.6.1 2.9.7 5 1.6 6.1.4.5 1.1 1 2 1.3 1 .4 1.9.4 2.9.1 1-.3 1.9-1 2.7-2.2.8-1.2 1.2-3 1.3-5.6 0-2.3-.4-4.1-1.1-5.2-.7-1.2-1.6-1.9-2.6-2.2-1-.3-1.9-.3-2.9 0-.9.3-1.6.7-2.1 1.1zM183.3 62.1V32.4c0-1 .3-1.8 1-2.5s1.5-1 2.5-1h3.4v12.4h13.7V28.9h7v33.2h-7V47.3h-13.7v14.8h-6.9zM221.1 28.8v20.8c0 2.6.5 4.5 1.4 5.7 1 1.2 2.7 1.7 4.9 1.7s3.8-.6 4.9-1.7c1-1.2 1.5-3.1 1.5-5.7V28.8h6.9v21.5c0 4.1-1.2 7.2-3.5 9.4-2.1 2.1-5.4 3.2-9.9 3.2-4.4 0-7.7-1.1-9.9-3.2-2.3-2.1-3.5-5.2-3.5-9.4V32.5c0-1 .3-1.8 1-2.6.7-.7 1.5-1.1 2.5-1.1h3.7zM244.1 62.1V32.4c0-1 .3-1.8 1-2.5s1.5-1 2.5-1h12.2c3.4 0 6 .7 7.8 2.1 1.8 1.5 2.7 3.6 2.7 6.3 0 1.7-.4 3.1-1.1 4.2-.7 1.1-1.7 2-3 2.6 1.7.7 3 1.7 3.9 3 .8 1.2 1.3 2.8 1.3 4.8 0 3.2-1 5.7-3.1 7.5-2.1 1.7-5.1 2.6-9 2.6h-15.2zm6.5-20.4h7.8c1.7 0 2.9-.3 3.7-.9.8-.6 1.2-1.5 1.2-2.7 0-1.2-.4-2.1-1.2-2.7-.6-.5-1.9-.8-3.8-.8h-7.7v7.1zm0 14.4h8.1c1.8 0 3.2-.4 4.2-1.1.9-.6 1.4-1.7 1.4-3.3 0-1.5-.5-2.7-1.4-3.4-.8-.6-2.3-1-4.3-1h-8v8.8z"/><g><path d="M40 44.5c0-1.1.1-2 .8-2.5.7-.5 1.3-.8 2.2-.8.9 0 2 .3 2.7.8.7.5 1.4 1.3 1.4 2.5v9.7c0 .7-.2 1.5.3 1.9.4.5.6.8 1.3.8H52V45.5c0-3.3-1.3-5.5-3.1-6.6-1.8-1.1-3.9-1.6-6-1.6-2 .1-3.8.7-5.5 1.8-1.7 1.1-2.4 3.2-2.4 6.5V57h5V44.5z"/><path d="M69.3 67c-1.5 0-2.9.3-4.1 1l-3.7-4.1-.6-.6c3.9-4.3 6.2-10 6.2-16.2 0-4.2-1.1-8.1-2.9-11.6l4.3-2.9c1.3.9 2.8 1.5 4.5 1.5 4.1 0 7.5-3.4 7.5-7.5s-3.4-7.5-7.5-7.5-7.5 3.4-7.5 7.5c0 .7.1 1.3.3 1.9l-4.4 2.9c-2.1-2.5-4.8-4.6-7.8-6.1l.3-.8 2.2-5.8c.3 0 .6.1 1 .1 5.2 0 9.4-4.2 9.4-9.4C66.4 4.2 62.2 0 57 0s-9.4 4.2-9.4 9.4c0 3.1 1.5 5.8 3.8 7.5L49 23.5c-1.9-.5-4-.8-6.1-.8-2.1 0-4.2.3-6.1.8l-1.3-3.4c1.6-1.4 2.7-3.4 2.7-5.7 0-4.1-3.4-7.5-7.5-7.5s-7.5 3.4-7.5 7.5 3.4 7.5 7.5 7.5h.2l1.3 3.4c-3.9 1.9-7.1 4.8-9.5 8.4l-.8-.4-3.1-1.6c.1-.6.2-1.3.2-2 0-5.2-4.2-9.4-9.4-9.4S.2 24.5.2 29.7s4.2 9.4 9.4 9.4c2.7 0 5.2-1.2 6.9-3l3.1 1.6.8.4c-1.1 2.8-1.7 5.8-1.7 8.9 0 .9 0 1.7.1 2.6l-.8.1-4 .9c-1.3-2.2-3.7-3.7-6.5-3.7-4.1 0-7.5 3.4-7.5 7.5s3.4 7.5 7.5 7.5c3.8 0 6.9-2.8 7.4-6.4l4.9-1.1c1.1 3.4 2.9 6.5 5.3 9l-.6.6-4.1 4.7c-1.2-.6-2.5-.9-3.9-.9-5.2 0-9.4 4.2-9.4 9.4s4.2 9.4 9.4 9.4 9.4-4.2 9.4-9.4c0-2-.6-3.8-1.7-5.3l4-4.6.6-.6c3.5 2.5 8.2 4.1 12.2 4.4V76.4c-2 1.2-4.5 3.8-4.5 6.9 0 4.1 3.4 7.5 7.5 7.5s7.5-3.4 7.5-7.5c0-3.5-1.5-6.4-5.5-7.3v-5c5-.5 8-2.1 11.2-4.5l4.2 4.7c-1 1.5-1.6 3.3-1.6 5.2 0 5.2 4.2 9.4 9.4 9.4s9.4-4.2 9.4-9.4-4.2-9.4-9.3-9.4zM73 23.9c1.4 0 2.6 1.2 2.6 2.6 0 1.4-1.2 2.6-2.6 2.6-1.4 0-2.6-1.2-2.6-2.6 0-1.4 1.2-2.6 2.6-2.6zM9.6 34.2c-2.4 0-4.4-2-4.4-4.4 0-2.4 2-4.4 4.4-4.4 2.4 0 4.4 2 4.4 4.4.1 2.4-1.9 4.4-4.4 4.4zM7.5 57c-1.4 0-2.6-1.2-2.6-2.6 0-1.4 1.2-2.6 2.6-2.6 1.4 0 2.6 1.2 2.6 2.6 0 1.4-1.2 2.6-2.6 2.6zm9 24.7c-2.4 0-4.4-2-4.4-4.4 0-2.4 2-4.4 4.4-4.4 2.4 0 4.4 2 4.4 4.4.1 2.4-1.9 4.4-4.4 4.4zM57 4.9c2.4 0 4.4 2 4.4 4.4s-2 4.4-4.4 4.4c-2.4 0-4.4-2-4.4-4.4s2-4.4 4.4-4.4zM30.6 17c-1.4 0-2.6-1.2-2.6-2.6 0-1.4 1.2-2.6 2.6-2.6s2.6 1.2 2.6 2.6c0 1.4-1.2 2.6-2.6 2.6zm12.3 12.7c9.6 0 17.3 7.7 17.3 17.3 0 9.6-7.7 17.3-17.3 17.3-9.6 0-17.3-7.7-17.3-17.3 0-9.6 7.7-17.3 17.3-17.3zm3.7 53.6c0 1.4-1.2 2.6-2.6 2.6-1.4 0-2.6-1.2-2.6-2.6 0-1.4 1.2-2.6 2.6-2.6 1.4 0 2.6 1.2 2.6 2.6zm22.7-2.4c-2.4 0-4.4-2-4.4-4.4 0-2.4 2-4.4 4.4-4.4 2.4 0 4.4 2 4.4 4.4 0 2.4-2 4.4-4.4 4.4z"/></g></g></svg>