<svg xmlns="http://www.w3.org/2000/svg" viewBox="0 0 97.75 97.75"><path d="M48.875 0C21.883 0 0 21.882 0 48.875S21.883 97.75 48.875 97.75 97.75 75.868 97.75 48.875 75.867 0 48.875 0zM54.5 65.11c-4.522 0-8.774-2.445-10.23-5.22 0 0-2.432 9.645-2.943 11.506-1.813 6.58-7.146 13.162-7.56 13.7-.29.376-.93.26-.995-.24-.113-.837-1.475-9.138.127-15.908.8-3.4 5.382-22.814 5.382-22.814s-1.334-2.673-1.334-6.625c0-6.206 3.596-10.838 8.074-10.838 3.807 0 5.645 2.86 5.645 6.286 0 3.828-2.436 9.552-3.693 14.856-1.05 4.44 2.225 8.064 6.605 8.064 7.932 0 13.27-10.188 13.27-22.26 0-9.175-6.175-16.045-17.417-16.045-12.697 0-20.615 9.47-20.615 20.052 0 3.646 1.078 6.22 2.764 8.21.773.915.883 1.283.602 2.333-.203.77-.66 2.625-.854 3.358-.28 1.062-1.137 1.44-2.098 1.05-5.846-2.388-8.572-8.794-8.572-15.995 0-11.892 10.03-26.153 29.922-26.153 15.985 0 26.506 11.566 26.506 23.984 0 16.43-9.132 28.7-22.59 28.7z" fill="#bababa"/></svg>