<svg xmlns="http://www.w3.org/2000/svg" viewBox="0 0 336 164.2"><g fill="#616262"><path d="M12.3 152c0 1.3-.1 2.4-.4 3.3-.3.9-.7 1.7-1.2 2.3-.5.6-1.1 1.1-1.8 1.4-.7.3-1.4.5-2.3.5h-1c-.8-.1-1.6-.2-2.2-.6-.7-.3-1.3-.8-1.8-1.4-.5-.6-.9-1.4-1.1-2.3-.3-.9-.4-2-.4-3.3v-3c0-1.3.2-2.5.5-3.4.3-.9.7-1.7 1.3-2.3.5-.6 1.2-1.1 1.9-1.3.7-.3 1.6-.4 2.5-.4.9 0 1.7.1 2.5.4.8.3 1.4.7 1.9 1.3.5.6 1 1.4 1.3 2.3.3 1 .5 2.1.5 3.4v3.1zm-1.1-3c0-1.2-.1-2.2-.4-3.1-.3-.8-.6-1.5-1.1-2-.5-.5-1-.9-1.6-1.1-.6-.2-1.3-.3-2-.3s-1.4.1-2 .3c-.6.2-1.2.6-1.6 1.1-.5.5-.8 1.2-1.1 2-.3.8-.4 1.9-.4 3.1v3c0 1.2.1 2.3.4 3.1.3.8.6 1.5 1.1 2 .5.5 1 .9 1.6 1.1.6.2 1.3.3 2 .3s1.4-.1 2-.3c.6-.2 1.2-.6 1.6-1.1.5-.5.8-1.2 1.1-2 .3-.8.4-1.9.4-3.1v-3zM23.4 158.9c0 .1 0 .2-.1.3-.1.1-.2.1-.3.1h-.1c-.1 0-.2 0-.3-.1-.1-.1-.1-.2-.1-.3v-.6c-.6.3-1.2.6-1.9.8-.7.2-1.4.4-2.2.4-.4 0-.9-.1-1.3-.2s-.8-.3-1.2-.6c-.3-.3-.6-.7-.8-1.2-.2-.5-.3-1.1-.3-1.9v-.3c0-.6.1-1.2.3-1.6.2-.5.5-.8 1-1.2.5-.3 1.1-.5 1.8-.7.8-.1 1.7-.2 2.8-.2h1.8v-.9c0-.6 0-1.2-.1-1.6-.1-.4-.3-.8-.5-1.1-.2-.3-.5-.5-.9-.6-.4-.1-.9-.2-1.4-.2h-1.8c-.3 0-.5 0-.7.1-.2 0-.5.1-.8.1h-.4c-.1 0-.2-.1-.2-.3v-.1c0-.2 0-.3.1-.3.1-.1.2-.1.4-.1.3 0 .5-.1.7-.1.2 0 .5-.1.7-.1h2c.8 0 1.5.1 2 .3.5.2.9.5 1.2.9.3.4.5.9.6 1.4.1.5.2 1.1.2 1.8v8.1zm-1.1-6.3h-1.8c-.9 0-1.7 0-2.3.1-.6.1-1.1.2-1.5.5-.4.2-.7.5-.8.8-.2.4-.3.8-.3 1.3v.3c0 .6.1 1 .2 1.4.1.4.3.7.6.9.2.2.5.4.8.5.3.1.7.1 1 .1.7 0 1.3-.1 2-.3.6-.2 1.3-.5 2.1-.9v-4.7zM32.3 159.1c0 .1 0 .2-.1.2 0 .1-.2.1-.3.1-.2 0-.4.1-.6.1h-.6c-.4 0-.8 0-1.2-.1-.3-.1-.6-.2-.8-.4-.2-.2-.4-.5-.5-.8-.1-.3-.2-.8-.2-1.3v-9.4h-2.4c-.3 0-.5-.1-.5-.4v-.2c0-.2.2-.4.5-.4H28V144c0-.1 0-.2.1-.3.1-.1.2-.1.3-.1h.3c.1 0 .2 0 .3.1.1.1.1.2.1.3v2.5H32c.3 0 .5.1.5.4v.2c0 .3-.1.4-.5.4h-3v9.4c0 .7.1 1.2.4 1.4.3.2.7.3 1.2.3h1.1c.3 0 .5.1.5.3v.2zM43 158.9c0 .1 0 .2-.1.3-.1.1-.2.1-.3.1h-.1c-.1 0-.2 0-.3-.1-.1-.1-.1-.2-.1-.3v-.6c-.6.3-1.2.6-1.9.8-.7.2-1.4.4-2.2.4-.4 0-.9-.1-1.3-.2s-.8-.3-1.2-.6c-.3-.3-.6-.7-.8-1.2-.2-.5-.3-1.1-.3-1.9v-.3c0-.6.1-1.2.3-1.6.2-.5.5-.8 1-1.2.5-.3 1.1-.5 1.8-.7.8-.1 1.7-.2 2.8-.2h1.8v-.9c0-.6 0-1.2-.1-1.6-.1-.4-.3-.8-.5-1.1-.2-.3-.5-.5-.9-.6-.4-.1-.9-.2-1.5-.2h-1.8c-.3 0-.5 0-.7.1-.2 0-.5.1-.8.1h-.4c-.1 0-.2-.1-.2-.3v-.1c0-.2 0-.3.1-.3.1-.1.2-.1.4-.1.3 0 .5-.1.7-.1.2 0 .5-.1.7-.1h2c.8 0 1.5.1 2 .3.5.2.9.5 1.2.9.3.4.5.9.6 1.4.1.5.2 1.1.2 1.8v8.1zm-1.1-6.3h-1.8c-.9 0-1.7 0-2.3.1-.6.1-1.1.2-1.5.5-.4.2-.7.5-.8.8-.2.4-.3.8-.3 1.3v.3c0 .6.1 1 .2 1.4.1.4.3.7.6.9.2.2.5.4.8.5.3.1.6.1 1 .1.7 0 1.3-.1 2-.3.6-.2 1.3-.5 2.1-.9v-4.7zM51 147c0 .2-.1.3-.2.3s-.3.1-.5.1c-.5 0-1 .1-1.5.2s-1.1.4-1.9.9V159c0 .1 0 .2-.1.3-.1.1-.2.1-.3.1h-.1c-.1 0-.2 0-.3-.1-.1-.1-.1-.2-.1-.3v-12c0-.1 0-.2.1-.3.1-.1.2-.1.3-.1h.2c.1 0 .2 0 .3.1.1.1.1.2.1.3v.5c.6-.4 1.2-.7 1.7-.8.5-.2 1.1-.3 1.7-.3.2 0 .3 0 .5.1.1 0 .2.1.2.3v.2zM68 158.9c0 .1 0 .2-.1.3-.1.1-.2.1-.3.1-.3 0-.8.1-1.5.1-.7.1-1.6.1-2.7.1-.8 0-1.5-.1-2.2-.4-.7-.2-1.3-.6-1.9-1.2-.6-.6-1-1.3-1.3-2.3-.3-.9-.5-2.1-.5-3.6v-3c0-1.4.2-2.6.5-3.6.3-.9.8-1.7 1.3-2.3.5-.6 1.2-1 1.9-1.2.7-.2 1.4-.4 2.2-.4 1.1 0 2 0 2.7.1.7.1 1.2.1 1.5.1.1 0 .2.1.3.1.1.1.1.2.1.3v.3c0 .1 0 .2-.1.3h-.3c-.2 0-.5 0-.8-.1-.3 0-.7-.1-1-.1h-2.3c-.7 0-1.3.1-1.9.3-.6.2-1.1.6-1.5 1.1-.4.5-.8 1.2-1 2-.2.8-.4 1.8-.4 3v3.2c0 1.2.1 2.2.4 3 .2.8.6 1.5 1 2s.9.9 1.5 1.1c.6.2 1.2.3 1.9.3h2.3c.4 0 .7 0 1-.1.3 0 .6-.1.8-.1h.3c.1 0 .1.1.1.3v.3zM79.3 153.8c0 1.8-.4 3.2-1.2 4.2-.8 1-2.1 1.5-3.7 1.5s-2.9-.5-3.7-1.5c-.8-1-1.2-2.4-1.2-4.2v-1.7c0-1.8.4-3.2 1.2-4.2.8-1 2.1-1.5 3.7-1.5s2.9.5 3.7 1.5c.8 1 1.2 2.4 1.2 4.2v1.7zm-1-1.6c0-1.5-.3-2.6-.9-3.5-.6-.9-1.6-1.3-3-1.3s-2.4.4-3 1.3c-.6.9-.9 2-.9 3.5v1.7c0 1.5.3 2.6.9 3.5.6.9 1.6 1.3 3 1.3s2.4-.4 3-1.3c.6-.9.9-2 .9-3.5v-1.7zM96.5 159c0 .1 0 .2-.1.3-.1.1-.2.1-.3.1h-.2c-.1 0-.2 0-.3-.1-.1-.1-.1-.2-.1-.3v-8.6c0-1.1-.2-1.9-.7-2.4-.5-.4-1.2-.7-2.1-.7-.5 0-1.1.1-1.6.2-.6.2-1.1.3-1.6.6l.3.9c.1.4.1.7.1 1.2v8.7c0 .1 0 .2-.1.3-.1.1-.1.1-.3.1H89c-.1 0-.2 0-.3-.1 0-.1-.1-.2-.1-.3v-8.7c0-.6-.1-1-.2-1.4-.1-.4-.3-.7-.5-.9-.2-.2-.4-.4-.7-.5-.3-.1-.6-.1-.9-.1-.5 0-1.1.1-1.7.3-.6.2-1.2.4-1.7.7V159c0 .1 0 .2-.1.3-.1.1-.1.1-.3.1h-.3c-.1 0-.2 0-.3-.1-.1-.1-.1-.2-.1-.3v-12c0-.1 0-.2.1-.3.1-.1.2-.1.3-.1h.2c.1 0 .2 0 .3.1.1.1.1.2.1.3v.4c.5-.2 1.1-.5 1.7-.7.6-.2 1.3-.3 1.9-.3.4 0 .8.1 1.2.2.4.1.7.4 1 .8.6-.3 1.2-.5 1.9-.7.7-.2 1.3-.3 2-.3.5 0 1 .1 1.4.2.4.1.8.4 1.2.7.3.3.6.7.8 1.2.2.5.3 1.1.3 1.8v8.7zM108.6 153.8c0 3.8-1.6 5.7-4.7 5.7h-.8c-.3 0-.6 0-.9-.1-.3 0-.6-.1-.9-.1-.3 0-.6-.1-.8-.1v4.4c0 .1 0 .2-.1.3-.1.1-.2.1-.3.1h-.2c-.1 0-.2 0-.3-.1-.1-.1-.1-.2-.1-.3v-16.3c0-.1 0-.2.1-.3 0-.1.1-.1.3-.1.5-.1 1.2-.2 1.9-.3.7-.1 1.4-.1 2.1-.1.8 0 1.5.1 2.1.4.6.3 1.1.7 1.5 1.2.4.5.7 1.1.8 1.8.2.7.3 1.5.3 2.4v1.5zm-1.1-1.5c0-1.5-.3-2.7-.8-3.6-.5-.9-1.5-1.3-2.8-1.3-.6 0-1.2 0-1.8.1-.6.1-1.1.1-1.6.2v10.6c.2 0 .5.1.8.1.3 0 .6.1.9.1.3 0 .6 0 .9.1h.8c1.3 0 2.3-.4 2.8-1.2.6-.8.8-2 .8-3.6v-1.5zM111.2 147c0-.1 0-.2.1-.3.1-.1.2-.1.3-.1h.2c.1 0 .2 0 .3.1.1.1.1.2.1.3v8c0 .7.1 1.3.3 1.7.2.5.4.8.7 1.1.3.3.6.5 1 .6.4.1.8.2 1.3.2.6 0 1.2-.1 1.9-.3.7-.2 1.3-.4 1.9-.7V147c0-.1 0-.2.1-.3.1-.1.2-.1.3-.1h.1c.1 0 .2 0 .3.1.1.1.1.2.1.3v11.9c0 .1 0 .2-.1.3-.1.1-.2.1-.3.1h-.2c-.1 0-.2 0-.3-.1-.1-.1-.1-.2-.1-.3v-.4c-.6.3-1.3.5-1.9.7-.7.2-1.3.3-1.9.3-.6 0-1.1-.1-1.6-.3-.5-.2-1-.4-1.3-.8-.4-.4-.7-.8-.9-1.4-.2-.6-.3-1.3-.3-2.1V147zM129.8 159.1c0 .1 0 .2-.1.2 0 .1-.2.1-.3.1-.2 0-.4.1-.6.1h-.6c-.4 0-.8 0-1.1-.1-.3-.1-.6-.2-.9-.4-.2-.2-.4-.5-.5-.8-.1-.3-.2-.8-.2-1.3v-9.4h-2.4c-.3 0-.5-.1-.5-.4v-.2c0-.2.2-.4.5-.4h2.4V144c0-.1 0-.2.1-.3.1-.1.2-.1.3-.1h.3c.1 0 .2 0 .3.1.1.1.1.2.1.3v2.5h2.9c.3 0 .4.1.4.4v.2c0 .3-.1.4-.4.4h-2.9v9.4c0 .7.1 1.2.4 1.4.3.2.7.3 1.2.3h1.2c.3 0 .5.1.5.3v.2zM133.4 159.1c0 .1 0 .2-.1.3-.1.1-.2.1-.3.1h-.1c-.1 0-.2 0-.3-.1-.1-.1-.1-.2-.1-.3V147c0-.1 0-.2.1-.3.1-.1.2-.1.3-.1h.1c.1 0 .2 0 .3.1.1.1.1.2.1.3v12.1zM145.7 159c0 .1 0 .2-.1.3-.1.1-.2.1-.3.1h-.2c-.1 0-.2 0-.3-.1-.1-.1-.1-.2-.1-.3v-8c0-.7-.1-1.3-.3-1.7-.2-.5-.4-.8-.7-1.1-.3-.3-.6-.5-1-.6-.4-.1-.8-.2-1.3-.2-.6 0-1.2.1-1.9.3-.7.2-1.3.4-1.9.7V159c0 .1 0 .2-.1.3-.1.1-.2.1-.3.1h-.2c-.1 0-.2 0-.3-.1-.1-.1-.1-.2-.1-.3v-12c0-.1 0-.2.1-.3.1-.1.2-.1.3-.1h.2c.1 0 .2 0 .3.1.1.1.1.2.1.3v.4c.6-.3 1.3-.5 1.9-.7.7-.2 1.3-.3 1.9-.3.6 0 1.1.1 1.6.3.5.2 1 .4 1.3.8.4.4.7.8.9 1.4.2.6.3 1.3.3 2.1v8zM158.8 147.2c0 .1 0 .2-.1.3-.1.1-.2.1-.3.1h-1.2l.4.4c.2.2.3.4.4.6.1.2.2.5.3.8.1.3.1.7.1 1.1v.2c0 .5-.1 1.1-.2 1.5-.2.5-.4.9-.8 1.2-.4.4-.9.6-1.5.8-.6.2-1.4.3-2.4.3-.6 0-1.2 0-1.6-.1-.4-.1-.9-.2-1.3-.4-.3.1-.5.3-.6.4-.1.2-.2.4-.2.6 0 .2 0 .3.1.4.1.1.3.2.5.3l4.3 1.1c.6.2 1.2.3 1.6.5.5.2.9.4 1.2.6.3.2.6.5.7.9.2.4.3.8.3 1.3v.2c0 .5-.1 1-.3 1.5-.2.5-.5.8-.9 1.2-.4.3-.9.6-1.6.8-.6.2-1.4.3-2.4.3-.9 0-1.7-.1-2.3-.3-.6-.2-1.2-.4-1.6-.8-.4-.3-.7-.7-.9-1.2-.2-.5-.3-1-.3-1.5v-.2c0-.4.1-.8.2-1.2.1-.4.3-.7.4-1 .2-.3.4-.6.6-.8.2-.2.4-.4.6-.5h-.2c-.4-.1-.8-.3-1-.6-.2-.3-.3-.6-.3-1 0-.3.1-.6.2-.9.2-.3.4-.5.8-.7-.4-.3-.7-.7-.9-1.2-.2-.5-.3-1-.3-1.7v-.2c0-.5.1-.9.2-1.4.1-.5.4-.9.7-1.3.4-.4.9-.7 1.5-.9.6-.2 1.5-.4 2.5-.4h4.9c.1 0 .2 0 .3.1.1.1.1.2.1.3v.5zm-1.3 13.1c0-.3 0-.6-.1-.8-.1-.2-.2-.4-.5-.6-.2-.2-.5-.3-.9-.5-.4-.1-.9-.3-1.5-.4l-3.3-.9c-.5.4-.9.8-1.3 1.2-.3.5-.5 1.1-.5 1.9v.2c0 .4.1.8.2 1.2.1.4.4.6.7.9.3.2.7.4 1.2.6.5.1 1.2.2 1.9.2.8 0 1.5-.1 2-.2s.9-.3 1.2-.6c.3-.2.5-.5.6-.9.1-.4.2-.8.2-1.2v-.1zm-.2-9.7c0-.4-.1-.8-.2-1.2-.1-.4-.3-.7-.6-1-.3-.3-.7-.5-1.2-.7-.5-.2-1.1-.2-1.9-.2-.8 0-1.5.1-2 .3-.5.2-.9.4-1.2.7-.3.3-.5.6-.6 1-.1.4-.1.7-.1 1.1v.2c0 .3 0 .6.1 1s.3.7.6 1c.3.3.7.5 1.2.7.5.2 1.2.3 2 .3s1.4-.1 1.9-.2c.5-.2.9-.4 1.2-.6.3-.3.5-.6.6-.9.1-.4.2-.7.2-1.2v-.3zM177.4 158.7c.1.2.1.3.1.5s-.1.2-.4.2h-.3c-.1 0-.1 0-.2-.1-.1 0-.1-.1-.2-.1l-5.1-7.8h-4.1v7.6c0 .1 0 .2-.1.3-.1.1-.2.1-.3.1h-.2c-.1 0-.2 0-.3-.1-.1-.1-.1-.2-.1-.3v-16.9c0-.1 0-.2.1-.3.1-.1.2-.1.3-.2H170.3c1.1 0 2 .1 2.8.2.8.2 1.5.4 2 .8s1 .9 1.2 1.5c.3.6.4 1.4.4 2.3v.1c0 1.5-.4 2.6-1.1 3.3-.7.7-1.8 1.2-3.2 1.5l5 7.4zm-1.6-12.3c0-.8-.1-1.4-.3-1.9-.2-.5-.6-.9-1-1.2-.5-.3-1-.5-1.7-.6-.7-.1-1.5-.2-2.4-.2h-1.7c-.6 0-1.1 0-1.4.1v7.8h3.2c.9 0 1.7-.1 2.4-.2s1.3-.3 1.7-.6c.4-.3.8-.7 1-1.2.2-.5.3-1.1.3-1.9v-.1zM188.7 152.8c0 .1 0 .2-.1.3-.1.1-.2.1-.3.1h-8.1v.5c0 1 .1 1.8.3 2.5.2.6.5 1.1.9 1.5.4.4.9.6 1.4.7.5.1 1.1.2 1.7.2.5 0 1.1 0 1.7-.1l1.8-.3h.3c.1 0 .2.1.2.3v.2c0 .1 0 .2-.1.3-.1.1-.2.1-.4.2l-1.8.3c-.6.1-1.2.1-1.8.1-.8 0-1.4-.1-2.1-.3-.6-.2-1.2-.5-1.7-.9s-.9-1-1.2-1.8c-.3-.8-.4-1.7-.4-2.8v-1.6c0-.8.1-1.6.3-2.3.2-.7.5-1.3.9-1.8s.9-.9 1.5-1.2c.6-.3 1.3-.4 2.1-.4s1.5.1 2.1.4c.6.3 1.1.7 1.5 1.2.4.5.7 1.1.9 1.8.2.7.3 1.5.3 2.3v.6zm-1.1-.7c0-1.5-.3-2.7-.8-3.5-.6-.8-1.5-1.2-2.9-1.2-.7 0-1.2.1-1.7.3-.5.2-.9.6-1.2 1-.3.4-.5.9-.7 1.5-.1.6-.2 1.2-.2 1.9v.1h7.5v-.1zM199 156.2c0 .6-.1 1.2-.3 1.6-.2.4-.5.8-.9 1-.4.3-.8.4-1.3.5-.5.1-1 .2-1.6.2h-.9c-.3 0-.6 0-.9-.1-.3 0-.6-.1-.9-.1-.3 0-.5-.1-.8-.1-.2 0-.3-.1-.4-.1-.1-.1-.1-.1-.1-.3v-.3c0-.1.1-.2.2-.3.1-.1.2-.1.4 0l1.8.3c.6.1 1.2.1 1.7.1.4 0 .8 0 1.2-.1.4-.1.7-.2 1-.4.3-.2.5-.4.6-.7.2-.3.2-.7.2-1.2 0-.2 0-.5-.1-.7-.1-.2-.2-.4-.4-.6-.2-.2-.4-.4-.8-.6-.3-.2-.7-.5-1.2-.7l-1.5-.8c-.4-.2-.9-.5-1.2-.7-.4-.2-.7-.5-.9-.7l-.6-.9c-.1-.3-.2-.7-.2-1.1 0-.6.1-1 .3-1.4.2-.4.5-.7.8-.9.3-.2.7-.4 1.2-.5.4-.1.9-.1 1.4-.1.9 0 1.5 0 2 .1.5 0 1 .1 1.4.1.2 0 .3.1.4.1.1 0 .1.1.1.3v.2c0 .2 0 .3-.1.4-.1 0-.2.1-.4 0-.3 0-.8-.1-1.4-.2-.6-.1-1.3-.1-1.9-.1-.4 0-.7 0-1.1.1-.3 0-.6.1-.9.3-.2.1-.4.3-.6.6-.1.3-.2.6-.2 1 0 .5.2 1 .6 1.3.4.4 1 .7 1.7 1.2l1.6.9c.5.3.9.5 1.3.8.4.2.7.5 1 .8.3.3.4.6.6.9 0 .2.1.5.1.9zM210.7 152.8c0 .1 0 .2-.1.3-.1.1-.2.1-.3.1h-8.1v.5c0 1 .1 1.8.3 2.5.2.6.5 1.1.9 1.5.4.4.9.6 1.4.7.5.1 1.1.2 1.7.2.5 0 1.1 0 1.7-.1l1.8-.3h.3c.1 0 .2.1.2.3v.2c0 .1 0 .2-.1.3-.1.1-.2.1-.4.2l-1.8.3c-.6.1-1.2.1-1.8.1-.7 0-1.4-.1-2.1-.3-.6-.2-1.2-.5-1.7-.9s-.9-1-1.2-1.8c-.3-.8-.4-1.7-.4-2.8v-1.6c0-.8.1-1.6.3-2.3.2-.7.5-1.3.9-1.8s.9-.9 1.5-1.2c.6-.3 1.3-.4 2.1-.4s1.5.1 2.1.4c.6.3 1.1.7 1.5 1.2.4.5.7 1.1.9 1.8.2.7.3 1.5.3 2.3v.6zm-1-.7c0-1.5-.3-2.7-.8-3.5-.6-.8-1.5-1.2-2.9-1.2-.7 0-1.2.1-1.7.3-.5.2-.9.6-1.2 1-.3.4-.5.9-.7 1.5-.1.6-.2 1.2-.2 1.9v.1h7.5v-.1zM221.7 158.9c0 .1 0 .2-.2.3-.1.1-.2.1-.3.1h-.1c-.1 0-.2 0-.3-.1-.1-.1-.1-.2-.1-.3v-.6c-.6.3-1.2.6-1.9.8-.7.2-1.4.4-2.2.4-.4 0-.9-.1-1.3-.2s-.8-.3-1.2-.6c-.3-.3-.6-.7-.8-1.2-.2-.5-.3-1.1-.3-1.9v-.3c0-.6.1-1.2.3-1.6.2-.5.5-.8 1-1.2.5-.3 1.1-.5 1.8-.7.8-.1 1.7-.2 2.8-.2h1.8v-.9c0-.6 0-1.2-.1-1.6-.1-.4-.3-.8-.5-1.1-.2-.3-.5-.5-.9-.6-.4-.1-.9-.2-1.5-.2h-1.8c-.3 0-.5 0-.7.1-.2 0-.5.1-.8.1h-.4c-.1 0-.2-.1-.2-.3v-.1c0-.2.1-.3.1-.3.1-.1.2-.1.4-.1.3 0 .5-.1.7-.1.2 0 .5-.1.7-.1h2c.8 0 1.5.1 2 .3.5.2.9.5 1.2.9.3.4.5.9.7 1.4.1.5.2 1.1.2 1.8v8.1zm-1-6.3h-1.8c-.9 0-1.7 0-2.3.1-.6.1-1.1.2-1.5.5-.4.2-.7.5-.8.8-.2.4-.3.8-.3 1.3v.3c0 .6.1 1 .2 1.4.1.4.3.7.6.9.2.2.5.4.8.5.3.1.6.1 1 .1.7 0 1.3-.1 2-.3.6-.2 1.3-.5 2.1-.9v-4.7zM229.7 147c0 .2-.1.3-.2.3s-.3.1-.5.1c-.5 0-1 .1-1.5.2s-1.1.4-1.9.9V159c0 .1 0 .2-.1.3-.1.1-.2.1-.3.1h-.1c-.1 0-.2 0-.3-.1-.1-.1-.1-.2-.1-.3v-12c0-.1 0-.2.1-.3.1-.1.2-.1.3-.1h.2c.1 0 .2 0 .3.1.1.1.1.2.1.3v.5c.6-.4 1.2-.7 1.7-.8.5-.2 1.1-.3 1.7-.3.2 0 .3 0 .5.1.1 0 .2.1.2.3v.2zM238.7 158.9c0 .1 0 .2-.1.3-.1.1-.2.1-.4.1-.5.1-1 .1-1.5.2-.5 0-1 .1-1.4.1-.9 0-1.6-.2-2.2-.5-.6-.3-1.1-.7-1.5-1.3-.4-.5-.7-1.1-.8-1.8-.2-.7-.3-1.4-.3-2.2v-1.6c0-.8.1-1.5.3-2.2.2-.7.5-1.3.8-1.8.4-.5.9-.9 1.5-1.2.6-.3 1.3-.4 2.2-.4.4 0 .8 0 1.4.1.5 0 1 .1 1.5.2.2 0 .3.1.4.1.1.1.1.2.1.3v.2c0 .1 0 .2-.1.3-.1.1-.2.1-.4.1-1.1-.1-2.1-.2-2.9-.2-.7 0-1.3.1-1.7.3-.5.2-.8.5-1.1 1-.3.4-.5.9-.6 1.5-.1.6-.2 1.2-.2 2v1.6c0 .7.1 1.4.2 2 .1.6.3 1.1.6 1.5.3.4.7.8 1.1 1 .5.2 1.1.3 1.7.3.8 0 1.7-.1 2.9-.2h.4c.1.1.1.2.1.3v-.1zM249.9 159.1c0 .1 0 .2-.1.3-.1.1-.2.1-.3.1h-.2c-.1 0-.2 0-.3-.1-.1-.1-.1-.2-.1-.3V151c0-1.2-.3-2.1-.8-2.7-.5-.6-1.5-1-2.7-1-.5 0-1.1 0-1.7.1-.6.1-1.1.2-1.6.3V159c0 .1 0 .2-.1.3-.1.1-.2.1-.3.1h-.2c-.1 0-.2 0-.3-.1-.1-.1-.1-.2-.1-.3v-17c0-.1 0-.2.1-.3.1-.1.2-.1.3-.1h.2c.1 0 .2 0 .3.1.1.1.1.2.1.3v4.8c.5-.1 1-.2 1.6-.3.6-.1 1.1-.1 1.7-.1.8 0 1.5.1 2.1.3.6.2 1.1.5 1.4 1 .4.4.6.9.8 1.5.2.6.3 1.2.3 1.8v8.1zM259.1 159c0 .1 0 .2-.1.3-.1.1-.2.1-.3.1h-.2c-.1 0-.2 0-.3-.1-.1-.1-.1-.2-.1-.3v-16.9c0-.1 0-.2.1-.3.1-.1.2-.1.3-.1h.2c.1 0 .2 0 .3.1.1.1.1.2.1.3V159zM271.7 159c0 .1 0 .2-.1.3-.1.1-.2.1-.3.1h-.2c-.1 0-.2 0-.3-.1-.1-.1-.1-.2-.1-.3v-8c0-.7-.1-1.3-.2-1.7-.2-.5-.4-.8-.7-1.1-.3-.3-.6-.5-1-.6-.4-.1-.8-.2-1.3-.2-.6 0-1.2.1-1.9.3-.7.2-1.3.4-1.9.7V159c0 .1 0 .2-.1.3-.1.1-.2.1-.3.1h-.3c-.1 0-.2 0-.3-.1-.1-.1-.1-.2-.1-.3v-12c0-.1 0-.2.1-.3.1-.1.2-.1.3-.1h.2c.1 0 .2 0 .3.1.1.1.1.2.1.3v.4c.6-.3 1.3-.5 1.9-.7.7-.2 1.3-.3 1.9-.3.6 0 1.1.1 1.6.3.5.2 1 .4 1.3.8.4.4.7.8.9 1.4.2.6.3 1.3.3 2.1v8zM282.4 156.2c0 .6-.1 1.2-.3 1.6-.2.4-.5.8-.9 1-.4.3-.8.4-1.3.5-.5.1-1 .2-1.6.2h-.9c-.3 0-.6 0-.9-.1-.3 0-.6-.1-.9-.1-.3 0-.5-.1-.8-.1-.2 0-.3-.1-.4-.1-.1-.1-.1-.1-.1-.3v-.3c0-.1.1-.2.2-.3.1-.1.2-.1.4 0l1.8.3c.6.1 1.2.1 1.7.1.4 0 .8 0 1.2-.1.4-.1.7-.2 1-.4.3-.2.5-.4.6-.7.2-.3.2-.7.2-1.2 0-.2 0-.5-.1-.7-.1-.2-.2-.4-.4-.6-.2-.2-.4-.4-.8-.6-.3-.2-.7-.5-1.2-.7l-1.5-.8c-.4-.2-.9-.5-1.2-.7-.4-.2-.7-.5-.9-.7l-.6-.9c-.1-.3-.2-.7-.2-1.1 0-.6.1-1 .3-1.4.2-.4.5-.7.8-.9.3-.2.7-.4 1.2-.5.4-.1.9-.1 1.4-.1.9 0 1.6 0 2 .1.5 0 1 .1 1.4.1.2 0 .3.1.4.1.1 0 .1.1.1.3v.2c0 .2 0 .3-.1.4-.1 0-.2.1-.4 0-.3 0-.8-.1-1.4-.2-.6-.1-1.3-.1-1.9-.1-.4 0-.7 0-1.1.1-.3 0-.6.1-.9.3-.2.1-.4.3-.6.6-.1.3-.2.6-.2 1 0 .5.2 1 .6 1.3.4.4 1 .7 1.7 1.2l1.6.9c.5.3.9.5 1.3.8.4.2.7.5 1 .8.3.3.4.6.6.9 0 .2.1.5.1.9zM291 159.1c0 .1 0 .2-.1.2 0 .1-.2.1-.3.1-.2 0-.4.1-.6.1h-.6c-.4 0-.8 0-1.2-.1-.3-.1-.6-.2-.9-.4-.2-.2-.4-.5-.5-.8-.1-.3-.2-.8-.2-1.3v-9.4h-2.4c-.3 0-.5-.1-.5-.4v-.2c0-.2.2-.4.5-.4h2.4V144c0-.1 0-.2.1-.3.1-.1.2-.1.3-.1h.3c.1 0 .2 0 .3.1.1.1.1.2.1.3v2.5h2.8c.3 0 .5.1.5.4v.2c0 .3-.2.4-.5.4h-2.8v9.4c0 .7.1 1.2.4 1.4.3.2.7.3 1.2.3h1.1c.3 0 .5.1.5.3v.2zM294.5 159.1c0 .1 0 .2-.1.3-.1.1-.2.1-.3.1h-.1c-.1 0-.2 0-.3-.1-.1-.1-.1-.2-.1-.3V147c0-.1 0-.2.1-.3.1-.1.2-.1.3-.1h.1c.1 0 .2 0 .3.1.1.1.1.2.1.3v12.1zM304.2 159.1c0 .1 0 .2-.1.2 0 .1-.2.1-.3.1-.2 0-.4.1-.6.1h-.6c-.4 0-.8 0-1.2-.1-.3-.1-.6-.2-.8-.4-.2-.2-.4-.5-.5-.8-.1-.3-.2-.8-.2-1.3v-9.4h-2.4c-.3 0-.5-.1-.5-.4v-.2c0-.2.2-.4.5-.4h2.4V144c0-.1 0-.2.1-.3.1-.1.2-.1.3-.1h.3c.1 0 .2 0 .3.1.1.1.1.2.1.3v2.5h2.9c.3 0 .4.1.4.4v.2c0 .3-.2.4-.4.4H301v9.4c0 .7.1 1.2.4 1.4.3.2.7.3 1.2.3h1.2c.3 0 .5.1.5.3v.2zM306.5 147c0-.1 0-.2.1-.3.1-.1.2-.1.3-.1h.2c.1 0 .2 0 .3.1.1.1.1.2.1.3v8c0 .7.1 1.3.3 1.7.2.5.4.8.7 1.1.3.3.6.5 1 .6.4.1.8.2 1.3.2.6 0 1.2-.1 1.9-.3.6-.2 1.3-.4 1.9-.7V147c0-.1 0-.2.1-.3.1-.1.2-.1.3-.1h.1c.1 0 .2 0 .3.1.1.1.1.2.1.3v11.9c0 .1 0 .2-.1.3-.1.1-.2.1-.3.1h-.1c-.1 0-.2 0-.3-.1-.1-.1-.1-.2-.1-.3v-.4c-.6.3-1.3.5-1.9.7-.7.2-1.3.3-1.9.3-.6 0-1.1-.1-1.6-.3-.5-.2-1-.4-1.3-.8-.4-.4-.7-.8-.9-1.4-.2-.6-.3-1.3-.3-2.1V147zM325.1 159.1c0 .1 0 .2-.1.2 0 .1-.2.1-.3.1-.2 0-.4.1-.6.1h-.6c-.4 0-.8 0-1.2-.1-.3-.1-.6-.2-.8-.4-.2-.2-.4-.5-.5-.8-.1-.3-.2-.8-.2-1.3v-9.4h-2.4c-.3 0-.5-.1-.5-.4v-.2c0-.2.2-.4.5-.4h2.4V144c0-.1 0-.2.1-.3.1-.1.2-.1.3-.1h.3c.1 0 .2 0 .3.1.1.1.1.2.1.3v2.5h2.9c.3 0 .5.1.5.4v.2c0 .3-.2.4-.5.4h-2.9v9.4c0 .7.1 1.2.4 1.4.3.2.7.3 1.2.3h1.1c.3 0 .5.1.5.3v.2zM336 152.8c0 .1 0 .2-.1.3-.1.1-.2.1-.3.1h-8.1v.5c0 1 .1 1.8.3 2.5.2.6.5 1.1.9 1.5.4.4.9.6 1.4.7.5.1 1.1.2 1.7.2.5 0 1.1 0 1.7-.1l1.8-.3h.3c.1 0 .2.1.2.3v.2c0 .1 0 .2-.1.3-.1.1-.2.1-.4.2l-1.8.3c-.6.1-1.2.1-1.8.1-.7 0-1.4-.1-2.1-.3-.7-.2-1.2-.5-1.7-.9s-.9-1-1.2-1.8c-.3-.8-.4-1.7-.4-2.8v-1.6c0-.8.1-1.6.3-2.3.2-.7.5-1.3.9-1.8s.9-.9 1.5-1.2c.6-.3 1.3-.4 2.1-.4s1.5.1 2.1.4c.6.3 1.1.7 1.5 1.2.4.5.7 1.1.9 1.8.2.7.3 1.5.3 2.3v.6zm-1-.7c0-1.5-.3-2.7-.8-3.5-.6-.8-1.5-1.2-2.9-1.2-.7 0-1.2.1-1.7.3-.5.2-.9.6-1.2 1-.3.4-.5.9-.7 1.5-.1.6-.2 1.2-.2 1.9v.1h7.5v-.1z"/><g><path d="M6.4 121.5h.2c.1 0 .3 0 .4-.1.1-.1.2-.2.2-.4v-.7c0-.2-.1-.3-.2-.4-.1-.1-.2-.1-.4-.1h-.2c-.1 0-.3 0-.4.1-.1.1-.2.2-.2.4v.7c0 .1.1.3.2.4.1 0 .3.1.4.1zM3.1 121.5h.2c.1 0 .3 0 .4-.1.1-.1.2-.2.2-.4v-.7c0-.2-.1-.3-.2-.4-.1-.1-.2-.1-.4-.1h-.2c-.1 0-.3 0-.4.1-.1.1-.2.2-.2.4v.7c0 .1 0 .3.2.4.1 0 .2.1.4.1zM14.5 137.2h-.2c-.1 0-.3 0-.4.1-.1.1-.2.2-.2.4v.7c0 .1.1.3.2.4.1.1.2.1.4.1h.2c.1 0 .3-.1.4-.1.1-.1.2-.2.2-.4v-.7c0-.2-.1-.3-.2-.4-.1 0-.3-.1-.4-.1zM32.6 125.7c0-.1 0-.2-.1-.3-.1-.1-.2-.1-.3-.1H32c-.1 0-.2 0-.3.1-.1.1-.1.2-.1.3V133.4c0 .1-.1.2-.2.3-.1.1-.2.1-.3.1H28.7c-.3 0-.5-.1-.8-.1-.2-.1-.5-.1-.6-.2-.2-.1-.3-.2-.3-.4v-6.5c0-.1 0-.2-.1-.3-.1-.1-.2-.1-.3-.1h-.2c-.1 0-.2 0-.3.1-.1.1-.1.2-.1.3v6.3c0 .2-.1.4-.2.5-.1.1-.3.2-.5.3-.2.1-.4.1-.6.1H22.9c-.2 0-.5-.1-.7-.1-.2-.1-.4-.1-.6-.2-.2-.1-.3-.2-.3-.4v-5.7c0-.1 0-.2-.1-.3-.1-.1-.2-.1-.3-.1h-.2c-.1 0-.2 0-.3.1-.1.1-.1.2-.1.3v5.5c0 .2-.1.4-.2.5-.1.1-.3.2-.5.3-.2.1-.4.1-.7.1h-2.2c-.2 0-.5-.1-.7-.1-.2-.1-.4-.1-.6-.2-.2-.1-.3-.2-.3-.4v-6.8c0-.1 0-.2-.1-.3-.1-.1-.2-.1-.3-.1h-.2c-.1 0-.2 0-.3.1-.1.1-.1.2-.1.3v6.6c0 .2-.1.4-.2.5-.1.1-.3.2-.5.3-.2.1-.4.1-.7.1H10.8c-.3 0-.6 0-.8-.1-.2 0-.4-.1-.6-.3-.2-.1-.3-.3-.4-.5-.1-.2-.1-.5-.1-.9v-6.9c0-.1 0-.2-.1-.3 0-.1-.1-.1-.3-.1-.4-.1-.8-.2-1.3-.2-.5-.1-.9-.1-1.3-.1-.8 0-1.5.1-2.2.3-.7.2-1.3.5-1.8.9s-.9.9-1.2 1.5c-.3.6-.4 1.4-.4 2.3v.7c0 1.4.3 2.6 1 3.4.7.8 1.7 1.2 3.2 1.2h.4c.7 0 1.4-.1 2-.3.6-.2 1-.5 1.2-.9.2.5.5.9.9 1.1.4.2.9.3 1.5.3h1.4c.4 0 .8 0 1.3-.1s.9-.3 1.3-.6c.3.3.7.5 1.2.6.5.1.9.1 1.3.1h1c.4 0 .9 0 1.4-.1.5-.1.9-.3 1.3-.6.3.3.7.5 1.2.6.5.1.9.1 1.3.1h.5c.6 0 1.1-.1 1.5-.2.5-.1.8-.3 1.1-.6.4.3.8.5 1.3.6.5.1 1 .1 1.6.1H31c.4 0 .8-.1.9-.2.2-.1.3-.2.4-.3.1-.1.1-.3.1-.4v-.6-.7-.7-1-1.4-1.2-1.2c.2-.3.2-.8.2-1.4zm-24.8 6.6c0 .2-.1.4-.3.6-.2.2-.4.3-.6.4-.3.1-.5.2-.9.2-.3.1-.6.1-.9.1h-.5c-1.2 0-2.1-.3-2.6-1s-.8-1.5-.8-2.6v-.6c0-.8.1-1.4.3-1.9.2-.5.6-.9 1-1.2.4-.3.9-.5 1.5-.6.6-.1 1.2-.2 1.8-.2h1c.4 0 .7.1 1 .1v6.7zM64.5 117.2c-.1-.1-.2-.1-.3-.1H64c-.1 0-.2 0-.3.1-.1.1-.1.2-.1.3v15.8c0 .1-.1.2-.2.3-.1.1-.2.1-.3.1H60.1s-.1-.1-.1-.2l-1.1-3-.2-.6c-.4-1.1-.9-2-1.4-2.7-.5-.7-1-1.2-1.6-1.6-.6-.4-1.2-.6-1.9-.8-.7-.1-1.3-.2-2.1-.2h-1.1c-.2 0-.4 0-.6.1-.2 0-.3 0-.5.1-.2 0-.3.1-.3.2s-.1.2-.1.3v.2c0 .1.1.2.2.3.1 0 .2.1.4 0 .2 0 .4 0 .6-.1.2 0 .4 0 .6-.1h.8c.7 0 1.4.1 2 .2.6.1 1.1.4 1.6.7.5.3.9.7 1.2 1.2.3.5.7 1.1 1 1.8l.6 1.5 1 2.7H45v-8.6c0-.1 0-.2-.1-.3 0-.1-.1-.1-.3-.1-.5-.1-.9-.2-1.5-.3-.5 0-1.1-.1-1.7-.1-.8 0-1.5.1-2.1.4-.6.2-1.1.6-1.6 1-.4.4-.8 1-1 1.6-.2.6-.3 1.3-.3 2v.7c0 1.6.4 2.8 1.1 3.6.7.8 1.9 1.2 3.3 1.2H44v1.2c0 .7-.1 1.2-.3 1.7-.2.4-.5.8-.9 1-.4.2-.9.4-1.4.5-.6.1-1.1.1-1.8.1h-1.8c-.3 0-.4.1-.4.3v.3c0 .1 0 .2.1.2s.2.1.3.1h2c1.7 0 3-.3 3.9-1 .9-.7 1.4-1.8 1.4-3.4v-1H63c.4 0 .8-.1.9-.2.2-.1.3-.2.4-.3.1-.1.1-.3.1-.4v-.6-.7-.7V117.6c.2-.2.2-.3.1-.4zM44 133.8h-3c-1.2 0-2.2-.3-2.7-.9-.6-.6-.8-1.6-.8-2.9v-.6c0-1.3.4-2.3 1.1-3 .7-.7 1.7-1 2.9-1h1.4c.4 0 .8.1 1.2.1v8.3zM69.1 117.6c0-.1 0-.2.1-.3.1-.1.2-.1.3-.1h.2c.1 0 .2 0 .3.1.1.1.1.2.1.3v16.9c0 .1 0 .2-.1.3-.1.1-.2.1-.3.1h-.2c-.1 0-.2 0-.3-.1-.1-.1-.1-.2-.1-.3v-16.9zM93.9 133.8h.6c.1 0 .3 0 .4-.1.1-.1.1-.2.1-.3v-.5-1.8-1.5-1.5-1.8c0-.1 0-.2.1-.3.1-.1.2-.1.3-.1h.2c.1 0 .2 0 .3.1.1.1.1.2.1.3V134c0 .2-.1.3-.1.4-.1.1-.2.2-.4.3-.3.1-1.4.2-3.2.2h-5.9c-1.5 0-2.7-.1-3.6-.4-.9-.3-1.7-.7-2.2-1.2-.5-.5-.9-1.2-1.1-1.9-.2-.7-.3-1.6-.3-2.5v-.9c0-.3.1-.7.1-1.1 0-.2.1-.3.1-.4.1-.1.2-.1.3-.1h.2c.2 0 .3.2.3.5 0 .4-.1.7-.1.9v.8c0 .7.1 1.4.2 2.1.1.6.4 1.2.8 1.7s1.1.9 1.9 1.1c.8.3 1.9.4 3.3.4h7.6zm-8.4-11.2c0-.2.1-.3.2-.4.1-.1.2-.1.4-.1h.2c.2 0 .3 0 .4.1.1.1.2.2.2.4v.7c0 .1-.1.3-.2.4-.1.1-.2.1-.4.1H86c-.1 0-.3 0-.4-.1-.1-.1-.2-.2-.2-.4v-.7zm1.6-2.5c0-.1.1-.3.2-.4.1-.1.2-.1.4-.1h.2c.1 0 .3 0 .4.1.1.1.2.2.2.4v.7c0 .1-.1.3-.2.4-.1.1-.2.1-.4.1h-.2c-.1 0-.3 0-.4-.1-.1-.1-.2-.2-.2-.4v-.7zm1.7 2.5c0-.2.1-.3.2-.4.1-.1.2-.1.4-.1h.2c.1 0 .3 0 .4.1.1.1.2.2.2.4v.7c0 .1-.1.3-.2.4-.1.1-.2.1-.4.1h-.2c-.1 0-.3 0-.4-.1-.1-.1-.2-.2-.2-.4v-.7z"/><g><path d="M127.2 137.2h-.2c-.1 0-.3 0-.4.1-.1.1-.2.2-.2.4v.7c0 .1.1.3.2.4.1.1.2.1.4.1h.2c.1 0 .3-.1.4-.1.1-.1.2-.2.2-.4v-.7c0-.2-.1-.3-.2-.4-.1 0-.2-.1-.4-.1zM134.2 117.2c-.1-.1-.2-.1-.3-.1h-.2c-.1 0-.2 0-.3.1-.1.1-.1.2-.1.3v15.8c0 .1-.1.2-.2.3-.1.1-.2.1-.3.1H129.3c-.2 0-.5-.1-.7-.1-.2-.1-.4-.1-.6-.2-.2-.1-.3-.2-.3-.4v-6.8c0-.1 0-.2-.1-.3-.1-.1-.2-.1-.3-.1h-.2c-.1 0-.2 0-.3.1-.1.1-.1.2-.1.3v6.6c0 .2-.1.4-.2.5-.1.1-.3.2-.5.3-.2.1-.4.1-.7.1h-1.8s-.1-.1-.1-.2l-1.1-3-.2-.6c-.4-1.1-.9-2-1.4-2.7-.5-.7-1-1.2-1.6-1.6-.6-.4-1.2-.6-1.9-.8-.7-.1-1.3-.2-2.1-.2H114c-.2 0-.4 0-.6.1-.2 0-.3 0-.5.1-.2 0-.3.1-.3.2-.1.1-.1.2-.1.3v.2c0 .1 0 .2.2.3.1 0 .2.1.4 0 .2 0 .4 0 .6-.1.2 0 .4 0 .6-.1h.8c.7 0 1.4.1 2 .2.6.1 1.1.4 1.6.7.5.3.9.7 1.2 1.2.3.5.7 1.1 1 1.8l.6 1.5 1 2.7h-13.8v-8.6c0-.1 0-.2-.1-.3 0-.1-.1-.1-.3-.1l-1.5-.3c-.5 0-1.1-.1-1.7-.1-.8 0-1.5.1-2.1.4-.6.2-1.1.6-1.6 1-.4.4-.8 1-1 1.6-.2.6-.3 1.3-.3 2v.7c0 1.6.4 2.8 1.1 3.6.7.8 1.9 1.2 3.3 1.2h3.1v1.2c0 .7-.1 1.2-.3 1.7-.2.4-.5.8-.9 1-.4.2-.9.4-1.4.5-.6.1-1.1.1-1.8.1h-1.8c-.3 0-.4.1-.4.3v.3c0 .1 0 .2.1.2 0 0 .2.1.3.1h2c1.7 0 3-.3 3.9-1 .9-.7 1.4-1.8 1.4-3.4v-1h16c.4 0 .8 0 1.3-.1s.9-.3 1.3-.6c.3.3.7.5 1.2.6.5.1.9.1 1.3.1h3c.4 0 .8-.1.9-.2.2-.1.3-.2.4-.3.1-.1.1-.3.1-.4 0-.2 0-.4.1-.6v-.7-.7V117.6c0-.2 0-.3-.1-.4zm-26.7 16.6h-3c-1.2 0-2.1-.3-2.7-.9-.6-.6-.8-1.6-.8-2.9v-.6c0-1.3.4-2.3 1.1-3 .7-.7 1.7-1 2.9-1h1.4c.4 0 .8.1 1.2.1v8.3z"/></g><g><path d="M173.5 121.5h.2c.1 0 .3 0 .4-.1.1-.1.2-.2.2-.4v-.7c0-.2-.1-.3-.2-.4-.1-.1-.2-.1-.4-.1h-.2c-.1 0-.3 0-.4.1-.1.1-.2.2-.2.4v.7c0 .1.1.3.2.4.2 0 .3.1.4.1zM170.2 121.5h.2c.1 0 .3 0 .4-.1.1-.1.2-.2.2-.4v-.7c0-.2-.1-.3-.2-.4-.1-.1-.2-.1-.4-.1h-.2c-.1 0-.3 0-.4.1-.1.1-.2.2-.2.4v.7c0 .1.1.3.2.4.1 0 .3.1.4.1zM175.5 124.8l-1.5-.3c-.5 0-1.1-.1-1.8-.1-1.6 0-2.8.4-3.6 1.3-.8.9-1.3 2.1-1.3 3.5v.7c0 .9.1 1.7.4 2.3.3.6.7 1.1 1.2 1.5h-5.4c.1-.2.1-.4.2-.6 0-.2.1-.5.1-.7v-.8-1.3c0-2.1-.5-3.6-1.6-4.5-1.1-.9-2.6-1.4-4.6-1.4-.3 0-.6 0-1.1.1-.4 0-.9.1-1.4.2-.5.1-1 .3-1.5.5s-1 .5-1.4.8v-8.6c0-.1 0-.2-.1-.3-.1-.1-.2-.1-.3-.1h-.2c-.1 0-.2 0-.3.1-.1.1-.1.2-.1.3v16.3h-5.6v-7.6c0-.1 0-.2-.1-.3-.1-.1-.2-.1-.3-.1h-.2c-.1 0-.2 0-.3.1-.1.1-.1.2-.1.3v10.5c0 .6 0 1-.1 1.4-.1.3-.2.6-.4.8-.2.2-.5.3-.9.3-.4.1-.8.1-1.4.1h-.5c-.3 0-.4.1-.4.3v.3c0 .1 0 .2.1.2 0 0 .2.1.3.1.1 0 .3.1.5.1h.3c.9 0 1.5-.1 2-.3.5-.2.9-.5 1.1-.9.2-.3.3-.6.3-1s.1-.8.1-1.3v-1.9h27.8c.6 0 1.2 0 1.9-.1.3 0 .5-.2.5-.5v-1.3V125.2c0-.1 0-.2-.1-.3.1 0 0-.1-.2-.1zm-12.7 6.7v1.2c0 .3-.1.5-.1.7-.1.2-.1.3-.2.3-.1.1-.2.1-.3.1H152.2v-6.7c.4-.3.8-.5 1.3-.7.5-.2 1-.3 1.5-.5.5-.1 1-.2 1.4-.2.4 0 .8-.1 1-.1.8 0 1.6.1 2.3.2.7.1 1.2.4 1.7.8s.8.9 1 1.6c.2.7.4 1.5.4 2.6v.7zm12.1 2.3c-.5 0-.9.1-1.4.1h-1.4c-1.2 0-2.2-.3-2.8-1-.6-.7-.9-1.6-.9-2.9v-.6c0-1.3.3-2.2 1-2.9.7-.7 1.6-1 2.9-1h1.4c.4 0 .8.1 1.2.1v8.2zM231.3 125.7c-.7-.8-1.8-1.3-3.4-1.3-1.5 0-2.7.4-3.4 1.3-.7.9-1.1 2.1-1.1 3.6v3.1c0 .1 0 .3-.1.4-.1.2-.2.4-.3.5l-.6.3c-.2.1-.4.1-.6.1h-4.7c.4-.2.7-.4 1-.7.3-.3.5-.7.7-1.1.2-.4.3-.9.4-1.3.1-.5.1-.9.1-1.4v-.4c0-1.5-.4-2.6-1.3-3.4-.9-.7-2.1-1.1-3.7-1.1-1 0-1.9.1-2.7.4-.9.3-1.6.7-2.1 1.2l-.3.3c0 .1-.1.2-.1.3v.2c0 .1 0 .1.1.2l2.7 6.9h-6c-.2 0-.3 0-.5.1-.4.1-.6.4-.6.8l-.1 1c0 .7-.1 1.3-.2 1.8s-.3 1-.5 1.3c-.2.3-.6.6-1 .8-.4.2-.9.3-1.5.3s-1.2-.1-1.6-.3c-.4-.2-.8-.4-1-.8-.2-.3-.4-.8-.5-1.3-.1-.5-.2-1.1-.2-1.8v-.9h1.6c.6 0 1.1 0 1.7-.1.6-.1 1.1-.2 1.5-.3.9-.4 1.6-.9 2-1.7.5-.8.7-1.8.7-3.1v-.6c0-1.6-.4-2.7-1.3-3.4-.9-.7-2.1-1.1-3.7-1.1-.7 0-1.2 0-1.7.1-.5 0-1 .1-1.5.3-.1 0-.2.1-.3.1 0 .1-.1.1-.1.3v8.6h-4.6V130c0-.9-.1-1.7-.3-2.3-.2-.7-.5-1.2-1-1.7-.4-.4-1-.8-1.7-1-.7-.2-1.5-.4-2.5-.4h-.7c-.3 0-.6 0-1 .1-.2 0-.3.1-.4.1-.1.1-.1.2-.1.3v.2c0 .1 0 .2.1.3.1.1.2.1.4.1.3 0 .6-.1.9-.1h.8c1.5 0 2.7.4 3.4 1.1.7.7 1.1 1.9 1.2 3.5v3.7h-6.9c-.3 0-.5.1-.5.4v.3c0 .3.2.4.5.4h12.5v.9c0 .8.1 1.5.2 2.1.1.6.3 1.1.7 1.6.3.4.8.8 1.3 1 .6.2 1.3.4 2.1.4s1.5-.1 2-.4c.5-.2 1-.6 1.3-1 .3-.4.6-1 .7-1.6.1-.6.2-1.3.3-2.1v-.8h14.9c.3 0 .7 0 1-.1.3-.1.6-.1.9-.2.3-.1.5-.2.7-.4.2-.2.4-.4.5-.6.4.7.9 1.1 1.5 1.4.7.3 1.5.4 2.4.4.8 0 1.5-.1 2.1-.3.6-.2 1-.5 1.4-1 .3-.4.6-.9.7-1.5.1-.6.2-1.3.2-2v-1.1c.3-1.9-.1-3.1-.8-4zm-33.1-.1c.4-.1.8-.1 1.2-.1h1.4c.6 0 1.1.1 1.6.2s.9.3 1.3.6.6.6.8 1.1c.2.4.3 1 .3 1.7v.6c0 1.4-.3 2.5-1 3.2-.7.7-1.7 1.1-3 1.1h-2.5v-8.4zm17 8.2H213l-2.9-7.2c.4-.3.8-.5 1.2-.7.4-.2.8-.3 1.1-.4.4-.1.7-.1 1-.2h.8c1.2 0 2.2.3 2.9.8.7.6 1.1 1.4 1.1 2.7v.3c0 1.2-.3 2.2-.8 3-.5.9-1.2 1.5-2.2 1.7zm16.2-3.3c0 1.4-.3 2.3-.8 2.9-.5.6-1.4.9-2.7.9-.9 0-1.6-.1-2.2-.4-.6-.3-1-.8-1.2-1.6-.1-.2-.1-.5-.1-.7v-2c0-1.2.3-2.2.8-2.9.5-.7 1.4-1.1 2.7-1.1.6 0 1.2.1 1.6.3.4.2.8.5 1.1.8.3.3.4.8.6 1.2.1.5.2 1.1.2 1.7v.9z"/></g></g><path d="M9.6 161.2v.3c0 .1-.1.2-.2.2l-.2.1h-.3c-.1-.1-.2-.2-.2-.3L7 156.3v-.3c0-.1.1-.2.2-.2l.2-.1h.3c.1.1.2.2.2.3l1.7 5.2zM132.2 142.5c0-.2.1-.3.2-.4.1-.1.2-.1.4-.1h.2c.1 0 .3 0 .4.1.1.1.2.2.2.4v.7c0 .1-.1.3-.2.4-.1.1-.2.1-.4.1h-.2c-.1 0-.3 0-.4-.1-.1-.1-.2-.2-.2-.4v-.7zM293.4 142.5c0-.2.1-.3.2-.4.1-.1.2-.1.4-.1h.2c.1 0 .3 0 .4.1.1.1.2.2.2.4v.7c0 .1-.1.3-.2.4-.1.1-.2.1-.4.1h-.2c-.1 0-.3 0-.4-.1-.1-.1-.2-.2-.2-.4v-.7z"/></g><g fill="#B7B7B7"><path d="M176.1 29.5c-4.3-4.5-9.7-7.8-15.5-9.6 4.4 4 7.3 9.7 7.3 16.1 0 11.2-9.2 20.5-21.5 21.6h-6.1l24.6 29.6c4.2-1.9 8.1-4.6 11.3-8-5.6-6.8-9-15.4-9-24.9-.1-9.4 3.3-18.1 8.9-24.8z"/><path d="M149.9 90.5c4 0 8-.7 11.8-2l-28.1-33.9h12.5c10.6-1 18.6-8.9 18.6-18.6 0-8.3-5.5-15.3-12.9-17.7H150c-10.4 0-19.8 4.5-26.4 11.6 2.9 3.6 5.1 7.7 6.6 12.3l-1.5.5c1.2 3.7 1.9 7.7 1.9 11.8 0 3.7-.6 7.3-1.6 10.7l1.5.4c-1.5 5-3.9 9.5-7 13.3 6.6 7.1 16 11.6 26.4 11.6z"/></g><path fill="#ED1C24" d="M61.078 84.755l8.074 11.803-2.56 1.75-8.072-11.803z"/><path fill="#73C69C" d="M204.7 0h3.1v15h-3.1z"/><path fill="#7D7D7D" d="M179.1 30.7c-5.5 6.3-8.9 14.6-8.9 23.7s3.4 17.4 8.9 23.7c5.3-6.5 8.5-14.7 8.5-23.7s-3.2-17.3-8.5-23.7z"/><path fill="#9A9A99" d="M242.3 54.4c0 19.4-15.4 35.2-34.5 36V18.3c19.2.8 34.5 16.7 34.5 36.1zm-63.2-23.7c5.3 6.5 8.5 14.7 8.5 23.7s-3.2 17.2-8.5 23.7c6.3 7.2 15.4 11.9 25.6 12.3V18.3c-10.2.5-19.3 5.1-25.6 12.4z"/><path fill="#7D7D7D" d="M128.7 42.6l-1.4.5c-1.3-4-3.3-7.6-5.8-10.8-4.8 6.1-7.6 13.8-7.6 22.1s2.8 16 7.6 22.1c2.7-3.5 4.8-7.5 6.1-11.8l1.5.4c1-3.4 1.6-7 1.6-10.7-.1-4.1-.8-8.1-2-11.8z"/><path fill="#9A9A99" d="M110.8 54.4c0-9.3 3.2-17.8 8.6-24.5-6.7-7.2-16.2-11.6-26.5-11.6-10.4 0-19.8 4.4-26.3 11.5 5.5 6.7 8.7 15.3 8.7 24.6S72 72.3 66.6 79c6.6 7.1 16 11.5 26.4 11.5 10.2 0 19.8-4.4 26.5-11.6-5.5-6.8-8.7-15.3-8.7-24.5z"/><path fill="#616262" d="M56.9 54.4c0 8.4 2.9 16.1 7.7 22.2 4.8-6.1 7.7-13.8 7.7-22.2 0-8.4-2.9-16.1-7.7-22.2-4.8 6.1-7.7 13.8-7.7 22.2z"/><path fill="#7D7D7D" d="M59.3 82.1c1.2-1 2.3-2 3.3-3.1-5.5-6.7-8.7-15.3-8.7-24.6s3.3-17.9 8.7-24.6c-6.6-7.1-16-11.5-26.3-11.5C16.4 18.3.2 34.5.2 54.4c0 19.9 16.2 36.1 36.1 36.1 7.7 0 14.8-2.4 20.6-6.5L44.3 65.7l2.5-1.7 12.5 18.1z"/></svg>