<svg xmlns="http://www.w3.org/2000/svg" viewBox="0 0 97.75 97.75"><path d="M48.875 0C21.882 0 0 21.882 0 48.875S21.882 97.75 48.875 97.75 97.75 75.868 97.75 48.875 75.868 0 48.875 0zM78.43 35.84c.023.578.035 1.156.035 1.737 0 20.878-15.887 42.473-42.473 42.473-8.127 0-16.04-2.32-22.883-6.708-.144-.09-.203-.268-.146-.427.057-.158.218-.256.383-.237 1.148.137 2.322.205 3.487.205 6.323 0 12.31-1.955 17.372-5.664-6.07-.513-11.285-4.62-13.16-10.48-.04-.12-.012-.254.072-.35.085-.096.215-.138.34-.115 1.68.32 3.39.34 5.04.072-6.26-1.945-10.66-7.808-10.66-14.483l.003-.194c.004-.127.073-.243.183-.306.11-.064.245-.065.355-.003 1.632.907 3.438 1.49 5.29 1.712-3.596-2.867-5.708-7.213-5.708-11.862 0-2.682.71-5.318 2.054-7.623.06-.103.166-.17.284-.178.12-.013.234.04.31.13 7.36 9.03 18.19 14.59 29.77 15.306-.193-.972-.29-1.974-.29-2.985 0-8.36 6.8-15.16 15.16-15.16 4.11 0 8.083 1.688 10.93 4.64 3.21-.654 6.266-1.834 9.09-3.508.13-.077.29-.065.41.028.116.094.164.25.118.394-.957 2.993-2.823 5.604-5.33 7.49 2.36-.412 4.652-1.106 6.83-2.073.147-.066.32-.024.425.1.105.123.114.3.024.434-1.985 2.97-4.445 5.54-7.314 7.637z" fill="#bababa"/></svg>